<?xml version="1.0" encoding="UTF-8"?>
<!DOCTYPE svg PUBLIC "-//W3C//DTD SVG 1.1//EN" "http://www.w3.org/Graphics/SVG/1.1/DTD/svg11.dtd">
<svg xmlns="http://www.w3.org/2000/svg" version="1.1" width="1042px" height="220px" style="shape-rendering:geometricPrecision; text-rendering:geometricPrecision; image-rendering:optimizeQuality; fill-rule:evenodd; clip-rule:evenodd" xmlns:xlink="http://www.w3.org/1999/xlink">
<g><path style="opacity:1" fill="#070f2c" d="M 727.5,24.5 C 818.839,23.8358 909.839,24.5025 1000.5,26.5C 910.57,25.3362 820.57,25.1695 730.5,26C 729.114,28.2073 727.781,30.3739 726.5,32.5C 727.219,30.2362 727.552,27.9029 727.5,25.5C 727.5,25.1667 727.5,24.8333 727.5,24.5 Z"/></g>
<g><path style="opacity:1" fill="#020f3f" d="M 1000.5,26.5 C 1000.5,76.1667 1000.5,125.833 1000.5,175.5C 897.5,175.5 794.5,175.5 691.5,175.5C 691.5,174.5 691.5,173.5 691.5,172.5C 692.033,168.035 693.033,163.702 694.5,159.5C 696.163,157.562 696.829,155.228 696.5,152.5C 696.5,152.167 696.5,151.833 696.5,151.5C 698.163,149.562 698.829,147.228 698.5,144.5C 698.5,144.167 698.5,143.833 698.5,143.5C 700.04,141.162 700.706,138.495 700.5,135.5C 702.04,133.162 702.706,130.495 702.5,127.5C 702.5,127.167 702.5,126.833 702.5,126.5C 704.163,124.562 704.829,122.228 704.5,119.5C 705.75,119.423 706.583,118.756 707,117.5C 707.26,113.576 708.26,109.909 710,106.5C 710.748,101.519 711.248,96.5186 711.5,91.5C 711.517,89.4352 711.85,87.4352 712.5,85.5C 714.163,83.5615 714.829,81.2282 714.5,78.5C 714.5,78.1667 714.5,77.8333 714.5,77.5C 716.163,75.5615 716.829,73.2282 716.5,70.5C 716.5,70.1667 716.5,69.8333 716.5,69.5C 718.163,67.5615 718.829,65.2282 718.5,62.5C 718.5,62.1667 718.5,61.8333 718.5,61.5C 720.163,59.5615 720.829,57.2282 720.5,54.5C 720.517,52.4352 720.85,50.4352 721.5,48.5C 723.163,46.5615 723.829,44.2282 723.5,41.5C 723.5,41.1667 723.5,40.8333 723.5,40.5C 725.163,38.5615 725.829,36.2282 725.5,33.5C 725.5,33.1667 725.5,32.8333 725.5,32.5C 725.833,32.5 726.167,32.5 726.5,32.5C 727.781,30.3739 729.114,28.2073 730.5,26C 820.57,25.1695 910.57,25.3362 1000.5,26.5 Z M 816.5,44.5 C 819.962,45.4816 823.629,45.815 827.5,45.5C 827.263,46.791 827.596,47.791 828.5,48.5C 828.5,52.8333 828.5,57.1667 828.5,61.5C 818.251,61.1806 808.084,61.5139 798,62.5C 798.455,93.282 798.622,124.115 798.5,155C 791.174,155.5 783.841,155.666 776.5,155.5C 776.5,124.167 776.5,92.8333 776.5,61.5C 766.985,61.1731 757.652,61.5064 748.5,62.5C 747.305,62.1344 746.639,61.301 746.5,60C 747.651,55.1784 747.651,50.3451 746.5,45.5C 769.842,44.8643 793.176,44.531 816.5,44.5 Z M 866.5,44.5 C 866.5,81.5 866.5,118.5 866.5,155.5C 859.5,155.5 852.5,155.5 845.5,155.5C 845.5,118.833 845.5,82.1667 845.5,45.5C 852.465,44.6591 859.465,44.3257 866.5,44.5 Z M 912.5,47.5 C 917.683,56.5451 923.349,65.2117 929.5,73.5C 930.723,76.2739 932.223,78.9406 934,81.5C 934.667,82.8333 935.333,82.8333 936,81.5C 943.041,69.251 950.207,57.0844 957.5,45C 961.333,44.8333 965.167,44.6667 969,44.5C 973.229,44.5102 977.062,45.1768 980.5,46.5C 970.445,61.897 960.778,77.5636 951.5,93.5C 949.289,95.561 947.623,98.061 946.5,101C 948.393,103.971 950.393,106.804 952.5,109.5C 954.265,112.709 956.265,115.709 958.5,118.5C 962.338,125.516 966.672,132.183 971.5,138.5C 972.11,140.434 973.11,142.101 974.5,143.5C 976.446,147.439 978.779,151.106 981.5,154.5C 973.564,155.389 965.231,155.723 956.5,155.5C 954.554,151.561 952.221,147.894 949.5,144.5C 949.573,142.973 948.906,141.973 947.5,141.5C 947.573,139.973 946.906,138.973 945.5,138.5C 943.913,134.317 941.579,130.65 938.5,127.5C 938.573,125.973 937.906,124.973 936.5,124.5C 935.609,122.391 934.442,120.391 933,118.5C 925.543,129.457 918.71,140.79 912.5,152.5C 911.522,152.811 910.855,153.478 910.5,154.5C 903.866,155.497 897.2,155.83 890.5,155.5C 889.326,154.486 888.66,153.153 888.5,151.5C 890.25,150.341 891.25,148.674 891.5,146.5C 897.914,138.014 903.58,129.014 908.5,119.5C 910.25,118.341 911.25,116.674 911.5,114.5C 914.934,109.82 918.267,104.987 921.5,100C 920.837,98.4815 919.837,97.3149 918.5,96.5C 918.25,94.326 917.25,92.6594 915.5,91.5C 915.573,89.9731 914.906,88.9731 913.5,88.5C 911.281,83.2909 908.281,78.6243 904.5,74.5C 903.89,72.5659 902.89,70.8993 901.5,69.5C 901.573,67.9731 900.906,66.9731 899.5,66.5C 899.068,65.2905 898.401,64.2905 897.5,63.5C 897.573,61.9731 896.906,60.9731 895.5,60.5C 895.573,58.9731 894.906,57.9731 893.5,57.5C 890.76,53.3528 888.593,49.0195 887,44.5C 894.714,44.4648 902.547,44.6314 910.5,45C 911.066,45.9947 911.733,46.828 912.5,47.5 Z"/></g>
<g><path style="opacity:1" fill="#707390" d="M 727.5,25.5 C 727.552,27.9029 727.219,30.2362 726.5,32.5C 726.167,32.5 725.833,32.5 725.5,32.5C 725.721,29.9327 726.388,27.5994 727.5,25.5 Z"/></g>
<g><path style="opacity:0.849" fill="#5f6084" d="M 727.5,24.5 C 818.665,23.5006 909.998,23.1673 1001.5,23.5C 1001.5,74.1667 1001.5,124.833 1001.5,175.5C 1001.17,175.5 1000.83,175.5 1000.5,175.5C 1000.5,125.833 1000.5,76.1667 1000.5,26.5C 909.839,24.5025 818.839,23.8358 727.5,24.5 Z"/></g>
<g><path style="opacity:0.992" fill="#787f96" d="M 725.5,33.5 C 725.829,36.2282 725.163,38.5615 723.5,40.5C 723.721,37.9327 724.388,35.5994 725.5,33.5 Z"/></g>
<g><path style="opacity:0.318" fill="#9094a7" d="M 37.5,43.5 C 259.999,42.5003 482.666,42.1669 705.5,42.5C 705.784,44.4147 705.451,46.0813 704.5,47.5C 704.5,46.1667 704.5,44.8333 704.5,43.5C 482.5,43.5 260.5,43.5 38.5,43.5C 38.1667,43.5 37.8333,43.5 37.5,43.5 Z"/></g>
<g><path style="opacity:1" fill="#070e35" d="M 38.5,43.5 C 260.5,43.5 482.5,43.5 704.5,43.5C 704.5,44.8333 704.5,46.1667 704.5,47.5C 703.833,48.1667 703.167,48.8333 702.5,49.5C 702.5,47.8333 702.5,46.1667 702.5,44.5C 483.833,44.3333 265.166,44.5 46.5,45C 43.5177,45.0971 40.8511,45.9304 38.5,47.5C 38.5,46.1667 38.5,44.8333 38.5,43.5 Z"/></g>
<g><path style="opacity:0.762" fill="#3e435d" d="M 746.5,43.5 C 774.005,43.1688 801.338,43.5021 828.5,44.5C 824.5,44.5 820.5,44.5 816.5,44.5C 793.176,44.531 769.842,44.8643 746.5,45.5C 746.5,44.8333 746.5,44.1667 746.5,43.5 Z"/></g>
<g><path style="opacity:1" fill="#021040" d="M 702.5,49.5 C 700.785,53.9665 700.118,58.6331 700.5,63.5C 699.351,63.7911 698.684,64.6244 698.5,66C 697.744,69.1248 697.411,72.2914 697.5,75.5C 696.459,82.9957 694.792,90.3291 692.5,97.5C 691.883,97.6107 691.383,97.944 691,98.5C 690.505,100.473 690.338,102.473 690.5,104.5C 690.3,107.63 689.634,110.63 688.5,113.5C 684.276,120.433 682.276,128.1 682.5,136.5C 679.102,153.42 675.102,170.086 670.5,186.5C 668.273,188.229 667.273,190.562 667.5,193.5C 457.764,193.832 248.097,193.499 38.5,192.5C 38.5,144.167 38.5,95.8333 38.5,47.5C 40.8511,45.9304 43.5177,45.0971 46.5,45C 265.166,44.5 483.833,44.3333 702.5,44.5C 702.5,46.1667 702.5,47.8333 702.5,49.5 Z M 101.5,62.5 C 110.195,62.3268 118.862,62.6602 127.5,63.5C 130.939,65.2043 134.605,66.5376 138.5,67.5C 149.221,73.2209 157.221,81.5543 162.5,92.5C 157.604,94.4461 152.271,95.1128 146.5,94.5C 145.649,92.1184 144.316,90.1184 142.5,88.5C 142.573,86.9731 141.906,85.9731 140.5,85.5C 138.2,83.016 135.533,81.016 132.5,79.5C 126.891,75.5129 120.557,73.8462 113.5,74.5C 95.6651,73.425 82.9984,81.0917 75.5,97.5C 69.9193,109.71 69.086,122.377 73,135.5C 73.8984,138.069 75.065,140.402 76.5,142.5C 84.106,156.648 96.106,163.648 112.5,163.5C 118.227,163.902 123.56,162.902 128.5,160.5C 133.691,158.923 137.691,155.923 140.5,151.5C 142.975,149.23 144.975,146.563 146.5,143.5C 152.026,143.179 157.36,143.512 162.5,144.5C 160.754,148.327 158.754,151.993 156.5,155.5C 154.413,156.585 153.08,158.251 152.5,160.5C 147.028,164.96 141.028,168.627 134.5,171.5C 128.78,173.107 123.114,174.44 117.5,175.5C 116.833,175.5 116.167,175.5 115.5,175.5C 110.493,175.249 105.493,174.916 100.5,174.5C 86.5123,171.179 75.179,163.845 66.5,152.5C 66.573,150.973 65.9063,149.973 64.5,149.5C 57.9685,136.162 55.6352,122.162 57.5,107.5C 61.0165,91.3157 69.6831,78.649 83.5,69.5C 89.3646,66.5579 95.3646,64.2246 101.5,62.5 Z M 240.5,63.5 C 243.78,69.4409 247.447,75.1076 251.5,80.5C 254.102,86.0532 257.436,91.0532 261.5,95.5C 268.006,106.517 275.006,117.184 282.5,127.5C 283.475,129.795 284.808,131.795 286.5,133.5C 289.807,139.459 293.473,145.125 297.5,150.5C 297.987,151.473 298.487,152.473 299,153.5C 299.5,123.502 299.667,93.5019 299.5,63.5C 304.167,63.5 308.833,63.5 313.5,63.5C 313.5,63.8333 313.5,64.1667 313.5,64.5C 312.502,100.996 312.168,137.663 312.5,174.5C 307.786,174.827 303.12,174.493 298.5,173.5C 295.498,168.513 292.164,163.847 288.5,159.5C 285.996,154.485 282.996,149.819 279.5,145.5C 279.573,143.973 278.906,142.973 277.5,142.5C 270.994,131.483 263.994,120.816 256.5,110.5C 256.573,108.973 255.906,107.973 254.5,107.5C 254.573,105.973 253.906,104.973 252.5,104.5C 252.573,102.973 251.906,101.973 250.5,101.5C 250.573,99.9731 249.906,98.9731 248.5,98.5C 246.554,94.5606 244.221,90.894 241.5,87.5C 241.539,86.2438 241.039,85.2438 240,84.5C 239.5,114.498 239.333,144.498 239.5,174.5C 234.737,174.774 230.07,174.441 225.5,173.5C 226.722,136.837 226.722,100.17 225.5,63.5C 230.5,63.5 235.5,63.5 240.5,63.5 Z M 398.5,63.5 C 397.917,67.2503 397.917,70.917 398.5,74.5C 383.167,74.5 367.833,74.5 352.5,74.5C 352.171,87.3443 352.505,100.011 353.5,112.5C 362.334,113.396 371.334,113.396 380.5,112.5C 384.14,112.93 387.64,113.93 391,115.5C 391.417,114.244 392.25,113.577 393.5,113.5C 392.208,116.668 392.208,119.835 393.5,123C 379.994,123.169 366.66,123.669 353.5,124.5C 352.505,137.323 352.171,150.323 352.5,163.5C 367.911,163.183 383.245,163.517 398.5,164.5C 398.5,165.833 398.5,167.167 398.5,168.5C 397.539,170.265 397.205,172.265 397.5,174.5C 377.833,174.5 358.167,174.5 338.5,174.5C 338.5,137.5 338.5,100.5 338.5,63.5C 358.5,63.5 378.5,63.5 398.5,63.5 Z M 615.5,80.5 C 619.796,93.727 624.462,106.727 629.5,119.5C 630.599,124.144 632.266,128.478 634.5,132.5C 634.5,132.833 634.5,133.167 634.5,133.5C 635.932,139.141 637.932,144.475 640.5,149.5C 640.5,149.833 640.5,150.167 640.5,150.5C 642.971,157.915 645.638,165.248 648.5,172.5C 644.285,174.436 639.619,175.103 634.5,174.5C 634.267,171.458 633.267,168.792 631.5,166.5C 630.391,160.674 628.391,155.174 625.5,150C 609.167,149.333 592.833,149.333 576.5,150C 572.806,157.916 569.806,166.083 567.5,174.5C 562.786,174.827 558.12,174.493 553.5,173.5C 558.375,160.207 563.042,146.873 567.5,133.5C 568.738,131.786 569.405,129.786 569.5,127.5C 572.071,122.463 574.071,117.129 575.5,111.5C 581.738,96.1254 587.405,80.4588 592.5,64.5C 597.929,64.2619 603.262,64.2619 608.5,64.5C 610.867,69.8927 613.2,75.226 615.5,80.5 Z M 437.5,66.5 C 439.62,72.7402 442.287,78.7402 445.5,84.5C 446.93,88.3544 448.597,92.0211 450.5,95.5C 452.446,101.004 454.779,106.337 457.5,111.5C 458.659,115.151 460.326,118.485 462.5,121.5C 465.071,129.562 468.404,137.229 472.5,144.5C 474.045,148.637 475.878,152.637 478,156.5C 479.122,154.593 479.955,152.593 480.5,150.5C 481.404,149.791 481.737,148.791 481.5,147.5C 485.011,141.139 488.011,134.472 490.5,127.5C 492.731,124.164 494.397,120.497 495.5,116.5C 497.204,113.744 498.537,110.744 499.5,107.5C 502.345,102.469 504.678,97.1359 506.5,91.5C 507.338,91.1583 507.672,90.4916 507.5,89.5C 509.204,86.7442 510.537,83.7442 511.5,80.5C 514.351,75.4585 516.684,70.1252 518.5,64.5C 523.833,64.5 529.167,64.5 534.5,64.5C 534.5,99.8333 534.5,135.167 534.5,170.5C 533.566,171.568 533.232,172.901 533.5,174.5C 529.167,174.5 524.833,174.5 520.5,174.5C 520.667,146.498 520.5,118.498 520,90.5C 519.209,91.745 518.709,93.0783 518.5,94.5C 506.275,120.624 494.275,146.957 482.5,173.5C 479.167,174.833 475.833,174.833 472.5,173.5C 471.198,169.887 469.531,166.554 467.5,163.5C 463.345,152.531 458.678,141.864 453.5,131.5C 448.103,118.816 442.603,106.15 437,93.5C 436.333,92.1667 435.667,92.1667 435,93.5C 434.749,98.5007 434.916,103.501 435.5,108.5C 434.503,130.327 434.169,152.327 434.5,174.5C 430.167,174.5 425.833,174.5 421.5,174.5C 421.5,137.833 421.5,101.167 421.5,64.5C 427.135,63.9634 432.468,64.6301 437.5,66.5 Z M 186.5,63.5 C 190.833,63.5 195.167,63.5 199.5,63.5C 199.5,100.5 199.5,137.5 199.5,174.5C 195.167,174.5 190.833,174.5 186.5,174.5C 186.5,137.5 186.5,100.5 186.5,63.5 Z"/></g>
<g><path style="opacity:0.005" fill="#f9f9fd" d="M 816.5,44.5 C 820.5,44.5 824.5,44.5 828.5,44.5C 828.5,45.8333 828.5,47.1667 828.5,48.5C 827.596,47.791 827.263,46.791 827.5,45.5C 823.629,45.815 819.962,45.4816 816.5,44.5 Z"/></g>
<g><path style="opacity:0.933" fill="#8184a0" d="M 723.5,41.5 C 723.829,44.2282 723.163,46.5615 721.5,48.5C 721.721,45.9327 722.388,43.5994 723.5,41.5 Z"/></g>
<g><path style="opacity:0.502" fill="#686a86" d="M 867.5,44.5 C 867.167,44.5 866.833,44.5 866.5,44.5C 859.465,44.3257 852.465,44.6591 845.5,45.5C 845.5,82.1667 845.5,118.833 845.5,155.5C 845.5,155.833 845.5,156.167 845.5,156.5C 844.502,119.004 844.168,81.337 844.5,43.5C 852.352,43.1746 860.018,43.508 867.5,44.5 Z"/></g>
<g><path style="opacity:1" fill="#2c2f53" d="M 980.5,46.5 C 977.062,45.1768 973.229,44.5102 969,44.5C 965.167,44.6667 961.333,44.8333 957.5,45C 950.207,57.0844 943.041,69.251 936,81.5C 935.333,82.8333 934.667,82.8333 934,81.5C 932.223,78.9406 930.723,76.2739 929.5,73.5C 931.972,73.3672 934.639,73.2005 937.5,73C 941.391,68.2595 944.724,63.0929 947.5,57.5C 948.769,55.3052 948.769,53.1385 947.5,51C 949.025,49.9914 950.692,49.4914 952.5,49.5C 952.5,47.8333 952.5,46.1667 952.5,44.5C 962.49,43.27 972.49,43.27 982.5,44.5C 982.145,45.5223 981.478,46.189 980.5,46.5 Z"/></g>
<g><path style="opacity:1" fill="#474a6b" d="M 704.5,47.5 C 703.768,53.0937 702.435,58.4271 700.5,63.5C 700.118,58.6331 700.785,53.9665 702.5,49.5C 703.167,48.8333 703.833,48.1667 704.5,47.5 Z"/></g>
<g><path style="opacity:0.006" fill="#f2f2f7" d="M 866.5,44.5 C 866.833,44.5 867.167,44.5 867.5,44.5C 867.5,81.8333 867.5,119.167 867.5,156.5C 860.167,156.5 852.833,156.5 845.5,156.5C 845.5,156.167 845.5,155.833 845.5,155.5C 852.5,155.5 859.5,155.5 866.5,155.5C 866.5,118.5 866.5,81.5 866.5,44.5 Z"/></g>
<g><path style="opacity:1" fill="#383c5c" d="M 912.5,47.5 C 911.733,46.828 911.066,45.9947 910.5,45C 902.547,44.6314 894.714,44.4648 887,44.5C 888.593,49.0195 890.76,53.3528 893.5,57.5C 888.3,54.9744 884.967,50.9744 883.5,45.5C 883.709,44.914 884.043,44.414 884.5,44C 893.035,43.7905 901.535,43.2905 910,42.5C 912.157,43.385 912.99,45.0516 912.5,47.5 Z"/></g>
<g><path style="opacity:1" fill="#626481" d="M 720.5,54.5 C 720.829,57.2282 720.163,59.5615 718.5,61.5C 718.721,58.9327 719.388,56.5994 720.5,54.5 Z"/></g>
<g><path style="opacity:0.502" fill="#8287a0" d="M 893.5,57.5 C 894.906,57.9731 895.573,58.9731 895.5,60.5C 894.094,60.0269 893.427,59.0269 893.5,57.5 Z"/></g>
<g><path style="opacity:0.502" fill="#858698" d="M 895.5,60.5 C 896.906,60.9731 897.573,61.9731 897.5,63.5C 896.094,63.0269 895.427,62.0269 895.5,60.5 Z"/></g>
<g><path style="opacity:1" fill="#474a6c" d="M 101.5,62.5 C 95.3646,64.2246 89.3646,66.5579 83.5,69.5C 84.0283,68.2794 84.695,67.1127 85.5,66C 90.4754,63.2881 95.8087,62.1214 101.5,62.5 Z"/></g>
<g><path style="opacity:0.793" fill="#717590" d="M 240.5,63.5 C 235.5,63.5 230.5,63.5 225.5,63.5C 226.722,100.17 226.722,136.837 225.5,173.5C 225.5,174.167 225.5,174.833 225.5,175.5C 224.502,138.004 224.168,100.337 224.5,62.5C 230.026,62.1786 235.36,62.5119 240.5,63.5 Z"/></g>
<g><path style="opacity:1" fill="#414464" d="M 127.5,63.5 C 130.914,63.7358 134.247,64.4025 137.5,65.5C 137.863,66.1835 138.196,66.8501 138.5,67.5C 134.605,66.5376 130.939,65.2043 127.5,63.5 Z"/></g>
<g><path style="opacity:0.257" fill="#999fb6" d="M 298.5,62.5 C 303.695,62.1795 308.695,62.5128 313.5,63.5C 308.833,63.5 304.167,63.5 299.5,63.5C 299.667,93.5019 299.5,123.502 299,153.5C 298.487,152.473 297.987,151.473 297.5,150.5C 298.498,121.338 298.831,92.0047 298.5,62.5 Z"/></g>
<g><path style="opacity:1" fill="#11183c" d="M 746.5,43.5 C 746.5,44.1667 746.5,44.8333 746.5,45.5C 747.651,50.3451 747.651,55.1784 746.5,60C 746.639,61.301 747.305,62.1344 748.5,62.5C 757.5,62.5 766.5,62.5 775.5,62.5C 775.5,93.8333 775.5,125.167 775.5,156.5C 774.883,156.389 774.383,156.056 774,155.5C 774.398,125.182 774.565,94.8486 774.5,64.5C 765.161,64.6665 755.827,64.4998 746.5,64C 745.813,58.198 745.146,52.3646 744.5,46.5C 744.942,45.2613 745.609,44.2613 746.5,43.5 Z"/></g>
<g><path style="opacity:0.773" fill="#515772" d="M 748.5,62.5 C 757.652,61.5064 766.985,61.1731 776.5,61.5C 776.5,92.8333 776.5,124.167 776.5,155.5C 776.5,155.833 776.5,156.167 776.5,156.5C 776.167,156.5 775.833,156.5 775.5,156.5C 775.5,125.167 775.5,93.8333 775.5,62.5C 766.5,62.5 757.5,62.5 748.5,62.5 Z"/></g>
<g><path style="opacity:1" fill="#424861" d="M 700.5,63.5 C 700.102,67.7607 699.102,71.7607 697.5,75.5C 697.411,72.2914 697.744,69.1248 698.5,66C 698.684,64.6244 699.351,63.7911 700.5,63.5 Z"/></g>
<g><path style="opacity:1" fill="#696b85" d="M 718.5,62.5 C 718.829,65.2282 718.163,67.5615 716.5,69.5C 716.721,66.9327 717.388,64.5994 718.5,62.5 Z"/></g>
<g><path style="opacity:0.259" fill="#9fa3b7" d="M 899.5,66.5 C 900.906,66.9731 901.573,67.9731 901.5,69.5C 900.094,69.0269 899.427,68.0269 899.5,66.5 Z"/></g>
<g><path style="opacity:1" fill="#181d3c" d="M 518.5,64.5 C 523.975,63.5111 529.642,63.1778 535.5,63.5C 535.832,101.004 535.498,138.337 534.5,175.5C 534.5,173.833 534.5,172.167 534.5,170.5C 534.5,135.167 534.5,99.8333 534.5,64.5C 529.167,64.5 523.833,64.5 518.5,64.5 Z"/></g>
<g><path style="opacity:1" fill="#6d6e91" d="M 716.5,70.5 C 716.829,73.2282 716.163,75.5615 714.5,77.5C 714.721,74.9327 715.388,72.5994 716.5,70.5 Z"/></g>
<g><path style="opacity:1" fill="#3a3d62" d="M 83.5,69.5 C 69.6831,78.649 61.0165,91.3157 57.5,107.5C 56.1329,99.7688 58.1329,93.1021 63.5,87.5C 64.3078,85.5767 64.8078,83.5767 65,81.5C 65.3333,81.8333 65.6667,82.1667 66,82.5C 68.9358,79.0025 71.7692,75.5025 74.5,72C 77.5127,71.0911 80.5127,70.2578 83.5,69.5 Z"/></g>
<g><path style="opacity:1" fill="#313455" d="M 113.5,74.5 C 120.557,73.8462 126.891,75.5129 132.5,79.5C 131.883,79.6107 131.383,79.944 131,80.5C 125.313,77.8219 119.479,75.8219 113.5,74.5 Z"/></g>
<g><path style="opacity:0.522" fill="#686f83" d="M 398.5,74.5 C 383.676,75.4961 368.676,75.8294 353.5,75.5C 353.5,87.5 353.5,99.5 353.5,111.5C 353.5,111.833 353.5,112.167 353.5,112.5C 352.505,100.011 352.171,87.3443 352.5,74.5C 367.833,74.5 383.167,74.5 398.5,74.5 Z"/></g>
<g><path style="opacity:0.988" fill="#434663" d="M 904.5,74.5 C 908.281,78.6243 911.281,83.2909 913.5,88.5C 912.279,87.9717 911.113,87.305 910,86.5C 909.39,83.9784 908.057,81.9784 906,80.5C 905.495,78.4817 904.995,76.4817 904.5,74.5 Z"/></g>
<g><path style="opacity:1" fill="#4b4e6c" d="M 511.5,80.5 C 510.537,83.7442 509.204,86.7442 507.5,89.5C 506.658,85.3791 507.991,82.3791 511.5,80.5 Z"/></g>
<g><path style="opacity:0.082" fill="#9196ae" d="M 601.5,82.5 C 600.833,83.1667 600.167,83.8333 599.5,84.5C 599.312,82.8967 599.812,81.5634 601,80.5C 601.464,81.0944 601.631,81.7611 601.5,82.5 Z"/></g>
<g><path style="opacity:1" fill="#747c90" d="M 714.5,78.5 C 714.829,81.2282 714.163,83.5615 712.5,85.5C 712.721,82.9327 713.388,80.5994 714.5,78.5 Z"/></g>
<g><path style="opacity:0.643" fill="#8c90a1" d="M 140.5,85.5 C 141.906,85.9731 142.573,86.9731 142.5,88.5C 141.094,88.0269 140.427,87.0269 140.5,85.5 Z"/></g>
<g><path style="opacity:0.996" fill="#393d5c" d="M 445.5,84.5 C 447.516,85.4859 448.849,87.1526 449.5,89.5C 450.466,91.396 450.799,93.396 450.5,95.5C 448.597,92.0211 446.93,88.3544 445.5,84.5 Z"/></g>
<g><path style="opacity:0.502" fill="#83869c" d="M 913.5,88.5 C 914.906,88.9731 915.573,89.9731 915.5,91.5C 914.094,91.0269 913.427,90.0269 913.5,88.5 Z"/></g>
<g><path style="opacity:1" fill="#2b2f50" d="M 251.5,80.5 C 253.044,80.7031 254.378,81.3698 255.5,82.5C 256.432,84.766 257.766,86.766 259.5,88.5C 258.391,90.2141 259.058,90.8808 261.5,90.5C 261.5,92.1667 261.5,93.8333 261.5,95.5C 257.436,91.0532 254.102,86.0532 251.5,80.5 Z"/></g>
<g><path style="opacity:0.016" fill="#bfbed3" d="M 162.5,92.5 C 163.404,93.209 163.737,94.209 163.5,95.5C 157.642,95.8222 151.975,95.4889 146.5,94.5C 152.271,95.1128 157.604,94.4461 162.5,92.5 Z"/></g>
<g><path style="opacity:1" fill="#2e3252" d="M 951.5,93.5 C 951.613,96.0488 950.946,98.3821 949.5,100.5C 950.963,103.357 951.963,106.357 952.5,109.5C 950.393,106.804 948.393,103.971 946.5,101C 947.623,98.061 949.289,95.561 951.5,93.5 Z"/></g>
<g><path style="opacity:1" fill="#444768" d="M 506.5,91.5 C 504.678,97.1359 502.345,102.469 499.5,107.5C 499.899,102.138 501.399,97.1382 504,92.5C 504.671,91.7476 505.504,91.4142 506.5,91.5 Z"/></g>
<g><path style="opacity:1" fill="#071241" d="M 601.5,82.5 C 604.602,88.8024 606.936,95.4691 608.5,102.5C 608.166,105.491 609.166,107.824 611.5,109.5C 614.762,117.285 617.428,125.285 619.5,133.5C 619.5,134.833 619.5,136.167 619.5,137.5C 606.456,138.147 593.789,137.48 581.5,135.5C 587.107,118.344 593.107,101.344 599.5,84.5C 600.167,83.8333 600.833,83.1667 601.5,82.5 Z"/></g>
<g><path style="opacity:1" fill="#626389" d="M 692.5,97.5 C 692.279,100.067 691.612,102.401 690.5,104.5C 690.338,102.473 690.505,100.473 691,98.5C 691.383,97.944 691.883,97.6107 692.5,97.5 Z"/></g>
<g><path style="opacity:0.529" fill="#757c8f" d="M 248.5,98.5 C 249.906,98.9731 250.573,99.9731 250.5,101.5C 249.094,101.027 248.427,100.027 248.5,98.5 Z"/></g>
<g><path style="opacity:0.259" fill="#aaaec1" d="M 437.5,66.5 C 432.468,64.6301 427.135,63.9634 421.5,64.5C 421.5,101.167 421.5,137.833 421.5,174.5C 425.833,174.5 430.167,174.5 434.5,174.5C 434.169,152.327 434.503,130.327 435.5,108.5C 435.5,130.833 435.5,153.167 435.5,175.5C 430.5,175.5 425.5,175.5 420.5,175.5C 420.5,138.167 420.5,100.833 420.5,63.5C 426.509,63.3338 432.509,63.5005 438.5,64C 437.748,64.6708 437.414,65.5041 437.5,66.5 Z"/></g>
<g><path style="opacity:0.514" fill="#82879b" d="M 250.5,101.5 C 251.906,101.973 252.573,102.973 252.5,104.5C 251.094,104.027 250.427,103.027 250.5,101.5 Z"/></g>
<g><path style="opacity:1" fill="#2b3052" d="M 615.5,80.5 C 620.402,86.1655 623.402,92.8322 624.5,100.5C 627.562,106.41 629.228,112.743 629.5,119.5C 624.462,106.727 619.796,93.727 615.5,80.5 Z"/></g>
<g><path style="opacity:1" fill="#585d76" d="M 608.5,102.5 C 610.065,104.509 611.065,106.843 611.5,109.5C 609.166,107.824 608.166,105.491 608.5,102.5 Z"/></g>
<g><path style="opacity:1" fill="#2f3254" d="M 711.5,91.5 C 711.248,96.5186 710.748,101.519 710,106.5C 708.26,109.909 707.26,113.576 707,117.5C 706.583,118.756 705.75,119.423 704.5,119.5C 706.232,109.907 708.565,100.573 711.5,91.5 Z"/></g>
<g><path style="opacity:0.486" fill="#808599" d="M 252.5,104.5 C 253.906,104.973 254.573,105.973 254.5,107.5C 253.094,107.027 252.427,106.027 252.5,104.5 Z"/></g>
<g><path style="opacity:0.782" fill="#4e5674" d="M 398.5,63.5 C 378.5,63.5 358.5,63.5 338.5,63.5C 338.5,100.5 338.5,137.5 338.5,174.5C 338.5,174.833 338.5,175.167 338.5,175.5C 337.502,138.004 337.168,100.337 337.5,62.5C 358.007,62.1695 378.34,62.5028 398.5,63.5 Z"/></g>
<g><path style="opacity:1" fill="#393c5c" d="M 918.5,96.5 C 919.837,97.3149 920.837,98.4815 921.5,100C 918.267,104.987 914.934,109.82 911.5,114.5C 911.819,110.864 912.985,107.531 915,104.5C 916.5,103.333 918,102.167 919.5,101C 918.62,99.6439 918.286,98.1439 918.5,96.5 Z"/></g>
<g><path style="opacity:0.463" fill="#8c8fa1" d="M 254.5,107.5 C 255.906,107.973 256.573,108.973 256.5,110.5C 255.094,110.027 254.427,109.027 254.5,107.5 Z"/></g>
<g><path style="opacity:0.255" fill="#9198ac" d="M 185.5,62.5 C 190.5,62.5 195.5,62.5 200.5,62.5C 200.5,100.167 200.5,137.833 200.5,175.5C 195.5,175.5 190.5,175.5 185.5,175.5C 185.5,137.833 185.5,100.167 185.5,62.5 Z M 186.5,63.5 C 186.5,100.5 186.5,137.5 186.5,174.5C 190.833,174.5 195.167,174.5 199.5,174.5C 199.5,137.5 199.5,100.5 199.5,63.5C 195.167,63.5 190.833,63.5 186.5,63.5 Z"/></g>
<g><path style="opacity:0.527" fill="#696f8d" d="M 241.5,87.5 C 240.502,116.662 240.169,145.995 240.5,175.5C 235.5,175.5 230.5,175.5 225.5,175.5C 225.5,174.833 225.5,174.167 225.5,173.5C 230.07,174.441 234.737,174.774 239.5,174.5C 239.333,144.498 239.5,114.498 240,84.5C 241.039,85.2438 241.539,86.2438 241.5,87.5 Z"/></g>
<g><path style="opacity:0.788" fill="#7d7e9f" d="M 353.5,111.5 C 367.167,111.5 380.833,111.5 394.5,111.5C 394.818,116.032 394.485,120.366 393.5,124.5C 380.167,124.5 366.833,124.5 353.5,124.5C 366.66,123.669 379.994,123.169 393.5,123C 392.208,119.835 392.208,116.668 393.5,113.5C 389.366,112.515 385.032,112.182 380.5,112.5C 371.334,113.396 362.334,113.396 353.5,112.5C 353.5,112.167 353.5,111.833 353.5,111.5 Z"/></g>
<g><path style="opacity:0.262" fill="#969ba9" d="M 534.5,170.5 C 534.5,172.167 534.5,173.833 534.5,175.5C 529.5,175.5 524.5,175.5 519.5,175.5C 519.831,148.328 519.498,121.328 518.5,94.5C 518.709,93.0783 519.209,91.745 520,90.5C 520.5,118.498 520.667,146.498 520.5,174.5C 524.833,174.5 529.167,174.5 533.5,174.5C 533.232,172.901 533.566,171.568 534.5,170.5 Z"/></g>
<g><path style="opacity:0.004" fill="#fcfcfc" d="M 380.5,112.5 C 385.032,112.182 389.366,112.515 393.5,113.5C 392.25,113.577 391.417,114.244 391,115.5C 387.64,113.93 384.14,112.93 380.5,112.5 Z"/></g>
<g><path style="opacity:1" fill="#3c405f" d="M 575.5,111.5 C 574.071,117.129 572.071,122.463 569.5,127.5C 570.023,123.127 570.857,118.794 572,114.5C 572.422,112.574 573.589,111.574 575.5,111.5 Z"/></g>
<g><path style="opacity:1" fill="#484d68" d="M 457.5,111.5 C 460.719,113.937 462.386,117.27 462.5,121.5C 460.326,118.485 458.659,115.151 457.5,111.5 Z"/></g>
<g><path style="opacity:1" fill="#434565" d="M 495.5,116.5 C 494.397,120.497 492.731,124.164 490.5,127.5C 490.337,125.143 490.503,122.81 491,120.5C 491.748,118.249 493.248,116.916 495.5,116.5 Z"/></g>
<g><path style="opacity:1" fill="#24284d" d="M 261.5,95.5 C 263.592,95.5614 265.092,96.5614 266,98.5C 266.317,96.6992 266.984,96.3659 268,97.5C 269.202,99.6775 269.702,102.011 269.5,104.5C 270.5,104.5 271.5,104.5 272.5,104.5C 273.659,111.151 276.659,116.818 281.5,121.5C 282.466,123.396 282.799,125.396 282.5,127.5C 275.006,117.184 268.006,106.517 261.5,95.5 Z"/></g>
<g><path style="opacity:1" fill="#6b6e8a" d="M 704.5,119.5 C 704.829,122.228 704.163,124.562 702.5,126.5C 702.721,123.933 703.388,121.599 704.5,119.5 Z"/></g>
<g><path style="opacity:0.784" fill="#646788" d="M 828.5,61.5 C 819.014,62.4938 809.348,62.8271 799.5,62.5C 799.5,93.8333 799.5,125.167 799.5,156.5C 791.833,156.5 784.167,156.5 776.5,156.5C 776.5,156.167 776.5,155.833 776.5,155.5C 783.841,155.666 791.174,155.5 798.5,155C 798.622,124.115 798.455,93.282 798,62.5C 808.084,61.5139 818.251,61.1806 828.5,61.5 Z"/></g>
<g><path style="opacity:1" fill="#333658" d="M 688.5,113.5 C 686.944,121.394 684.944,129.06 682.5,136.5C 682.276,128.1 684.276,120.433 688.5,113.5 Z"/></g>
<g><path style="opacity:0.502" fill="#81839a" d="M 936.5,124.5 C 937.906,124.973 938.573,125.973 938.5,127.5C 937.094,127.027 936.427,126.027 936.5,124.5 Z"/></g>
<g><path style="opacity:1" fill="#2d3153" d="M 75.5,97.5 C 73.0925,107.344 72.0925,117.344 72.5,127.5C 73.5,127.5 74.5,127.5 75.5,127.5C 75.577,131.794 76.2436,135.961 77.5,140C 76.7476,140.671 76.4142,141.504 76.5,142.5C 75.065,140.402 73.8984,138.069 73,135.5C 69.086,122.377 69.9193,109.71 75.5,97.5 Z"/></g>
<g><path style="opacity:1" fill="#3a3e5e" d="M 629.5,119.5 C 630.458,119.953 631.292,120.619 632,121.5C 633.44,125.041 634.274,128.708 634.5,132.5C 632.266,128.478 630.599,124.144 629.5,119.5 Z"/></g>
<g><path style="opacity:1" fill="#252a4c" d="M 958.5,118.5 C 961.056,119.543 963.223,121.21 965,123.5C 965.928,126.989 967.594,129.989 970,132.5C 970.813,134.436 971.313,136.436 971.5,138.5C 966.672,132.183 962.338,125.516 958.5,118.5 Z"/></g>
<g><path style="opacity:0.592" fill="#7a8096" d="M 702.5,127.5 C 702.706,130.495 702.04,133.162 700.5,135.5C 700.565,132.572 701.232,129.905 702.5,127.5 Z"/></g>
<g><path style="opacity:0.863" fill="#8f8fa1" d="M 37.5,43.5 C 37.8333,43.5 38.1667,43.5 38.5,43.5C 38.5,44.8333 38.5,46.1667 38.5,47.5C 38.5,95.8333 38.5,144.167 38.5,192.5C 248.164,194.499 458.164,195.166 668.5,194.5C 458.334,195.5 248.001,195.833 37.5,195.5C 36.3323,144.476 36.3323,93.809 37.5,43.5 Z"/></g>
<g><path style="opacity:0.787" fill="#3d435e" d="M 619.5,133.5 C 620.931,134.78 621.598,136.447 621.5,138.5C 607.833,138.5 594.167,138.5 580.5,138.5C 580.263,137.209 580.596,136.209 581.5,135.5C 593.789,137.48 606.456,138.147 619.5,137.5C 619.5,136.167 619.5,134.833 619.5,133.5 Z"/></g>
<g><path style="opacity:1" fill="#434569" d="M 490.5,127.5 C 488.011,134.472 485.011,141.139 481.5,147.5C 482.581,140.755 484.748,134.421 488,128.5C 488.671,127.748 489.504,127.414 490.5,127.5 Z"/></g>
<g><path style="opacity:1" fill="#2f3459" d="M 908.5,119.5 C 903.58,129.014 897.914,138.014 891.5,146.5C 892.138,144.54 892.138,142.707 891.5,141C 896.237,135.673 900.071,129.84 903,123.5C 904.451,121.536 906.284,120.203 908.5,119.5 Z"/></g>
<g><path style="opacity:0.506" fill="#7e8499" d="M 945.5,138.5 C 946.906,138.973 947.573,139.973 947.5,141.5C 946.094,141.027 945.427,140.027 945.5,138.5 Z"/></g>
<g><path style="opacity:0.016" fill="#bdbdf6" d="M 146.5,143.5 C 152.013,142.184 157.68,142.184 163.5,143.5C 163.376,144.107 163.043,144.44 162.5,144.5C 157.36,143.512 152.026,143.179 146.5,143.5 Z"/></g>
<g><path style="opacity:0.529" fill="#85889b" d="M 700.5,135.5 C 700.706,138.495 700.04,141.162 698.5,143.5C 698.565,140.572 699.232,137.905 700.5,135.5 Z"/></g>
<g><path style="opacity:0.502" fill="#838999" d="M 947.5,141.5 C 948.906,141.973 949.573,142.973 949.5,144.5C 948.094,144.027 947.427,143.027 947.5,141.5 Z"/></g>
<g><path style="opacity:0.49" fill="#808299" d="M 277.5,142.5 C 278.906,142.973 279.573,143.973 279.5,145.5C 278.094,145.027 277.427,144.027 277.5,142.5 Z"/></g>
<g><path style="opacity:1" fill="#11193d" d="M 298.5,62.5 C 298.831,92.0047 298.498,121.338 297.5,150.5C 293.473,145.125 289.807,139.459 286.5,133.5C 289.337,133.364 292.004,134.031 294.5,135.5C 293.91,136.799 292.91,137.632 291.5,138C 293.019,139.351 294.352,140.851 295.5,142.5C 296.086,142.291 296.586,141.957 297,141.5C 297.168,114.997 297.668,88.6635 298.5,62.5 Z"/></g>
<g><path style="opacity:1" fill="#313358" d="M 634.5,133.5 C 635.376,133.369 636.043,133.702 636.5,134.5C 638.433,139.866 640.599,144.866 643,149.5C 641.608,147.158 640.775,147.158 640.5,149.5C 637.932,144.475 635.932,139.141 634.5,133.5 Z"/></g>
<g><path style="opacity:1" fill="#565f79" d="M 698.5,144.5 C 698.829,147.228 698.163,149.562 696.5,151.5C 696.721,148.933 697.388,146.599 698.5,144.5 Z"/></g>
<g><path style="opacity:0.506" fill="#8587a0" d="M 64.5,149.5 C 65.9063,149.973 66.573,150.973 66.5,152.5C 65.0937,152.027 64.427,151.027 64.5,149.5 Z"/></g>
<g><path style="opacity:1" fill="#1f234b" d="M 453.5,131.5 C 458.678,141.864 463.345,152.531 467.5,163.5C 466.883,163.611 466.383,163.944 466,164.5C 464.833,161.5 463.667,158.5 462.5,155.5C 460.587,154.949 458.587,154.782 456.5,155C 457.428,152.21 457.762,149.21 457.5,146C 457.01,142.855 455.843,140.022 454,137.5C 453.505,135.527 453.338,133.527 453.5,131.5 Z"/></g>
<g><path style="opacity:1" fill="#393d5d" d="M 472.5,144.5 C 474.731,146.076 476.397,148.243 477.5,151C 478.577,151.47 479.577,151.303 480.5,150.5C 479.955,152.593 479.122,154.593 478,156.5C 475.878,152.637 474.045,148.637 472.5,144.5 Z"/></g>
<g><path style="opacity:0.012" fill="#b1b0f7" d="M 888.5,151.5 C 888.66,153.153 889.326,154.486 890.5,155.5C 890.5,155.833 890.5,156.167 890.5,156.5C 889.5,156.5 888.5,156.5 887.5,156.5C 887.216,154.585 887.549,152.919 888.5,151.5 Z"/></g>
<g><path style="opacity:1" fill="#34395c" d="M 140.5,151.5 C 137.691,155.923 133.691,158.923 128.5,160.5C 129.301,158.958 129.634,157.292 129.5,155.5C 132.961,156.111 135.628,154.944 137.5,152C 138.448,151.517 139.448,151.351 140.5,151.5 Z"/></g>
<g><path style="opacity:0.016" fill="#bfc1ce" d="M 912.5,152.5 C 912.461,153.583 912.127,154.583 911.5,155.5C 904.532,156.497 897.532,156.83 890.5,156.5C 890.5,156.167 890.5,155.833 890.5,155.5C 897.2,155.83 903.866,155.497 910.5,154.5C 910.855,153.478 911.522,152.811 912.5,152.5 Z"/></g>
<g><path style="opacity:1" fill="#5e647e" d="M 696.5,152.5 C 696.829,155.228 696.163,157.562 694.5,159.5C 694.721,156.933 695.388,154.599 696.5,152.5 Z"/></g>
<g><path style="opacity:0.655" fill="#7c8298" d="M 156.5,155.5 C 155.92,157.749 154.587,159.415 152.5,160.5C 153.08,158.251 154.413,156.585 156.5,155.5 Z"/></g>
<g><path style="opacity:1" fill="#3e4163" d="M 567.5,133.5 C 563.042,146.873 558.375,160.207 553.5,173.5C 558.12,174.493 562.786,174.827 567.5,174.5C 562.695,175.487 557.695,175.821 552.5,175.5C 552.336,172.813 552.503,170.146 553,167.5C 555.411,164.41 556.245,161.076 555.5,157.5C 559.423,152.236 561.923,145.903 563,138.5C 563.612,135.885 565.112,134.219 567.5,133.5 Z"/></g>
<g><path style="opacity:1" fill="#10193f" d="M 974.5,143.5 C 975.5,143.5 976.5,143.5 977.5,143.5C 977.351,144.552 977.517,145.552 978,146.5C 980.378,148.709 982.545,151.042 984.5,153.5C 984.24,155.187 983.573,156.687 982.5,158C 976.352,158.037 970.185,157.871 964,157.5C 959.648,157.568 955.481,158.234 951.5,159.5C 950.579,157.244 948.912,156.244 946.5,156.5C 946.5,154.833 946.5,153.167 946.5,151.5C 947.833,151.5 949.167,151.5 950.5,151.5C 950.007,149.194 949.674,146.861 949.5,144.5C 952.221,147.894 954.554,151.561 956.5,155.5C 965.009,156.821 973.675,156.821 982.5,155.5C 982.376,154.893 982.043,154.56 981.5,154.5C 978.779,151.106 976.446,147.439 974.5,143.5 Z"/></g>
<g><path style="opacity:0.02" fill="#c4c4d5" d="M 981.5,154.5 C 982.043,154.56 982.376,154.893 982.5,155.5C 973.675,156.821 965.009,156.821 956.5,155.5C 965.231,155.723 973.564,155.389 981.5,154.5 Z"/></g>
<g><path style="opacity:1" fill="#2f3454" d="M 640.5,150.5 C 642.257,151.084 643.59,152.251 644.5,154C 646.097,160.225 647.764,166.392 649.5,172.5C 649.167,172.5 648.833,172.5 648.5,172.5C 645.638,165.248 642.971,157.915 640.5,150.5 Z"/></g>
<g><path style="opacity:0.522" fill="#697089" d="M 353.5,124.5 C 353.5,137.167 353.5,149.833 353.5,162.5C 368.871,161.85 383.871,162.516 398.5,164.5C 383.245,163.517 367.911,163.183 352.5,163.5C 352.171,150.323 352.505,137.323 353.5,124.5 Z"/></g>
<g><path style="opacity:1" fill="#71708d" d="M 313.5,64.5 C 313.5,101.5 313.5,138.5 313.5,175.5C 308.238,175.195 303.072,175.529 298,176.5C 296.29,173.104 293.457,171.604 289.5,172C 290.718,170.562 291.385,168.895 291.5,167C 289.892,164.815 288.892,162.315 288.5,159.5C 292.164,163.847 295.498,168.513 298.5,173.5C 303.12,174.493 307.786,174.827 312.5,174.5C 312.168,137.663 312.502,100.996 313.5,64.5 Z"/></g>
<g><path style="opacity:1" fill="#575777" d="M 134.5,171.5 C 133.756,173.453 132.256,174.453 130,174.5C 125.863,175.237 121.697,175.571 117.5,175.5C 123.114,174.44 128.78,173.107 134.5,171.5 Z"/></g>
<g><path style="opacity:0.525" fill="#767990" d="M 398.5,168.5 C 398.5,170.833 398.5,173.167 398.5,175.5C 378.5,175.5 358.5,175.5 338.5,175.5C 338.5,175.167 338.5,174.833 338.5,174.5C 358.167,174.5 377.833,174.5 397.5,174.5C 397.205,172.265 397.539,170.265 398.5,168.5 Z"/></g>
<g><path style="opacity:0.525" fill="#60647c" d="M 631.5,166.5 C 633.267,168.792 634.267,171.458 634.5,174.5C 639.619,175.103 644.285,174.436 648.5,172.5C 648.833,172.5 649.167,172.5 649.5,172.5C 649.5,173.5 649.5,174.5 649.5,175.5C 644.156,175.666 638.823,175.499 633.5,175C 632.009,172.379 631.342,169.545 631.5,166.5 Z"/></g>
<g><path style="opacity:0.675" fill="#656c89" d="M 100.5,174.5 C 105.493,174.916 110.493,175.249 115.5,175.5C 110.434,176.716 105.434,176.383 100.5,174.5 Z"/></g>
<g><path style="opacity:1" fill="#040f37" d="M 353.5,124.5 C 366.833,124.5 380.167,124.5 393.5,124.5C 381.38,126.147 369.047,126.981 356.5,127C 357.807,132.254 358.474,137.754 358.5,143.5C 358.333,148.833 358.167,154.167 358,159.5C 357,148.833 356,138.167 355,127.5C 354.333,138.5 354.333,149.5 355,160.5C 369.755,161.491 384.588,161.824 399.5,161.5C 399.5,166.5 399.5,171.5 399.5,176.5C 378.993,176.83 358.66,176.497 338.5,175.5C 358.5,175.5 378.5,175.5 398.5,175.5C 398.5,173.167 398.5,170.833 398.5,168.5C 398.5,167.167 398.5,165.833 398.5,164.5C 383.871,162.516 368.871,161.85 353.5,162.5C 353.5,149.833 353.5,137.167 353.5,124.5 Z"/></g>
<g><path style="opacity:0.243" fill="#9fa0b0" d="M 691.5,172.5 C 691.5,173.5 691.5,174.5 691.5,175.5C 794.5,175.5 897.5,175.5 1000.5,175.5C 1000.83,175.5 1001.17,175.5 1001.5,175.5C 898.001,176.499 794.335,176.833 690.5,176.5C 690.232,174.901 690.566,173.568 691.5,172.5 Z"/></g>
<g><path style="opacity:1" fill="#07112e" d="M 670.5,186.5 C 670.44,189.341 669.774,192.007 668.5,194.5C 458.164,195.166 248.164,194.499 38.5,192.5C 248.097,193.499 457.764,193.832 667.5,193.5C 667.273,190.562 668.273,188.229 670.5,186.5 Z"/></g>
</svg>
