<?xml version="1.0" encoding="UTF-8"?>
<svg version="1.1" xmlns="http://www.w3.org/2000/svg" width="1064" height="296">
<path d="M0 0 C351.12 0 702.24 0 1064 0 C1064 97.68 1064 195.36 1064 296 C712.88 296 361.76 296 0 296 C0 198.32 0 100.64 0 0 Z " fill="#CECECE" transform="translate(0,0)"/>
<path d="M0 0 C220.11 0 440.22 0 667 0 C666.31248748 6.18761271 665.47710037 11.81516879 663.96557617 17.78125 C663.76037354 18.61093796 663.5551709 19.44062592 663.34375 20.29545593 C662.66559577 23.03168812 661.97927978 25.76580341 661.29296875 28.5 C660.8069491 30.45470209 660.32147207 32.40953917 659.83650208 34.36450195 C658.55235469 39.53530838 657.2614251 44.70439715 655.96887207 49.87310791 C654.44739971 55.96173081 652.93323948 62.05217448 651.41854572 68.14248657 C650.22806774 72.92886806 649.03660681 77.7149913 647.84062195 82.5 C642.14886015 105.3145272 636.59338329 128.16035155 631 151 C422.77 151 214.54 151 0 151 C0 101.17 0 51.34 0 0 Z " fill="#050F3D" transform="translate(42,78)"/>
<path d="M0 0 C90.42 0 180.84 0 274 0 C274 49.83 274 99.66 274 151 C171.7 151 69.4 151 -36 151 C-35.32848894 144.95640048 -34.54925643 139.4706385 -33.07324219 133.64941406 C-32.78247803 132.47304131 -32.78247803 132.47304131 -32.48583984 131.27290344 C-31.84495718 128.68575852 -31.19591297 126.10073492 -30.546875 123.515625 C-30.08567272 121.660186 -29.62501214 119.80461228 -29.16485596 117.94891357 C-27.9452082 113.0361023 -26.71877708 108.1250101 -25.49072266 103.21429443 C-16.89937426 68.83261862 -8.44232615 34.41871432 0 0 Z " fill="#05103D" transform="translate(732,59)"/>
<path d="M0 0 C5.28 0 10.56 0 16 0 C20.92296931 10.52014371 25.79784617 21.06058637 30.625 31.625 C30.96705475 32.37313965 31.3091095 33.1212793 31.66152954 33.89208984 C37.57899178 46.83841152 43.42600287 59.81516912 49.23046875 72.8125 C51.79497802 78.55326926 54.38994772 84.27980857 57 90 C63.33145758 77.81064926 68.81821419 65.27418657 74.35888672 52.70996094 C77.10961001 46.48276887 79.89985463 40.27322574 82.6875 34.0625 C83.23349297 32.8453835 83.7794729 31.62826116 84.32543945 30.41113281 C88.87569641 20.27052059 93.43450018 10.13375801 98 0 C103.28 0 108.56 0 114 0 C114 36.96 114 73.92 114 112 C109.05 112 104.1 112 99 112 C98.67 85.6 98.34 59.2 98 32 C84.11020141 63.24465269 84.11020141 63.24465269 70.31420898 94.53051758 C69.10868406 97.27517033 67.90030864 100.01855231 66.69140625 102.76171875 C66.3311586 103.58419601 65.97091095 104.40667328 65.5997467 105.2540741 C63.11366183 110.88633817 63.11366183 110.88633817 62 112 C60.31391034 112.07205511 58.62499341 112.08386068 56.9375 112.0625 C55.55884766 112.04896484 55.55884766 112.04896484 54.15234375 112.03515625 C53.08693359 112.01775391 53.08693359 112.01775391 52 112 C43.81896407 94.59265515 36.01076073 77.03543441 28.32080078 59.40649414 C27.94749634 58.55175507 27.57419189 57.69701599 27.1895752 56.81637573 C26.49759476 55.23135389 25.80678802 53.64581873 25.11755371 52.05960083 C22.17697254 45.32228845 19.08311723 38.68008733 16 32 C15.67 58.4 15.34 84.8 15 112 C10.05 112 5.1 112 0 112 C0 75.04 0 38.08 0 0 Z " fill="#CACACB" transform="translate(425,98)"/>
<path d="M0 0 C8.56807226 -1.59376344 17.61185262 -2.90555932 26 0 C32.74435107 5.70949059 36.51618054 13.93247326 40.34130859 21.74853516 C42.87894695 26.72296372 45.91073575 31.35413425 49 36 C50.31352171 33.87562549 51.62585713 31.75053408 52.9375 29.625 C53.31068359 29.02171875 53.68386719 28.4184375 54.06835938 27.796875 C56.13588965 24.45600369 56.13588965 24.45600369 58 21 C58.66 21 59.32 21 60 21 C60.0825 20.319375 60.165 19.63875 60.25 18.9375 C61.22332528 15.1253093 62.95807455 12.35929671 65 9 C65.66 9 66.32 9 67 9 C67.103125 8.2575 67.20625 7.515 67.3125 6.75 C68.0791577 3.68336919 68.79201381 2.25100083 71 0 C73.63549805 -0.45410156 73.63549805 -0.45410156 76.76171875 -0.390625 C77.87998047 -0.37773438 78.99824219 -0.36484375 80.15039062 -0.3515625 C81.31763672 -0.31804687 82.48488281 -0.28453125 83.6875 -0.25 C84.86634766 -0.23195313 86.04519531 -0.21390625 87.25976562 -0.1953125 C90.17398926 -0.14811859 93.08659031 -0.08229077 96 0 C95.67 1.32 95.34 2.64 95 4 C94.34 4 93.68 4 93 4 C92.814375 5.1446875 92.814375 5.1446875 92.625 6.3125 C92 9 92 9 90 12 C89.34 12 88.68 12 88 12 C87.814375 13.1446875 87.814375 13.1446875 87.625 14.3125 C87 17 87 17 85 20 C84.34 20 83.68 20 83 20 C82.814375 21.1446875 82.814375 21.1446875 82.625 22.3125 C82 25 82 25 80 28 C79.34 28 78.68 28 78 28 C77.90090332 28.71857178 77.80180664 29.43714355 77.69970703 30.17749023 C76.90365091 33.38865731 75.65313682 35.42346799 73.8046875 38.16015625 C73.17175781 39.11857422 72.53882813 40.07699219 71.88671875 41.06445312 C70.5413379 43.06946245 69.19235284 45.07205784 67.83984375 47.07226562 C67.20949219 48.02939453 66.57914063 48.98652344 65.9296875 49.97265625 C65.34429199 50.84156494 64.75889648 51.71047363 64.15576172 52.60571289 C62.82150282 54.86290885 62.82150282 54.86290885 63.14355469 57.02636719 C64.1654001 59.38115575 65.38093575 61.44693743 66.7734375 63.60546875 C67.34562012 64.49830566 67.91780273 65.39114258 68.50732422 66.31103516 C69.12365723 67.26026855 69.73999023 68.20950195 70.375 69.1875 C71.32076904 70.65775635 71.32076904 70.65775635 72.28564453 72.15771484 C74.18542984 75.10840438 76.0924573 78.05432165 78 81 C79.03181253 82.60250253 80.06310935 84.20533729 81.09375 85.80859375 C85.85051321 93.19618334 90.66403588 100.53257331 95.63671875 107.77734375 C97 110 97 110 97 112 C75.14337681 114.66544185 75.14337681 114.66544185 68.88232422 110.63769531 C65.35268327 106.85210009 63.31544703 102.25662201 61.22900391 97.56835938 C59.01315362 92.93769885 56.11477833 88.72892158 53.3125 84.4375 C52.28455499 82.81322209 51.25951979 81.1870966 50.23828125 79.55859375 C49.80555908 78.87079834 49.37283691 78.18300293 48.92700195 77.47436523 C48.62109131 76.98782471 48.31518066 76.50128418 48 76 C45.02855195 79.54795486 42.62298592 83.15977465 40.328125 87.17578125 C40.00084412 87.74580368 39.67356323 88.31582611 39.33636475 88.90312195 C38.3035849 90.70399743 37.27671153 92.50815937 36.25 94.3125 C35.54596245 95.54254075 34.84153899 96.7723607 34.13671875 98.00195312 C32.42001227 100.99876363 30.70858211 103.99854842 29 107 C28.34 107 27.68 107 27 107 C26.67 108.65 26.34 110.3 26 112 C17.42 112 8.84 112 0 112 C1.35611465 108.60971337 2.39251306 106.15466853 4.29296875 103.19921875 C4.98024048 102.12196533 4.98024048 102.12196533 5.68139648 101.02294922 C6.17841064 100.25225098 6.6754248 99.48155273 7.1875 98.6875 C8.26618997 96.996454 9.34428545 95.30502869 10.421875 93.61328125 C10.99744141 92.71174316 11.57300781 91.81020508 12.16601562 90.88134766 C15.44660637 85.7272566 18.69343242 80.5521297 21.9375 75.375 C22.56358154 74.38072998 23.18966309 73.38645996 23.8347168 72.36206055 C27.40353438 66.66585379 30.81092485 60.91770052 34 55 C28.84837089 46.44986271 23.70036366 37.90747665 18.125 29.625 C17.5357373 28.74956543 17.5357373 28.74956543 16.93457031 27.85644531 C16.52819336 27.2528418 16.12181641 26.64923828 15.703125 26.02734375 C12.39034597 21.10481631 9.12678727 16.15047514 5.875 11.1875 C5.29379395 10.30852051 4.71258789 9.42954102 4.11376953 8.52392578 C3.57864746 7.70520996 3.04352539 6.88649414 2.4921875 6.04296875 C2.01120605 5.31102295 1.53022461 4.57907715 1.03466797 3.82495117 C0 2 0 2 0 0 Z " fill="#CBCBCC" transform="translate(890,79)"/>
<path d="M0 0 C5.61 0 11.22 0 17 0 C21.84907048 11.16040929 25.83921203 22.58884709 29.875 34.0625 C31.24563462 37.94984209 32.61821932 41.83649119 33.9921875 45.72265625 C34.32724304 46.67060562 34.66229858 47.61855499 35.00750732 48.5952301 C39.19980638 60.42740414 43.55323445 72.19881909 48 83.9375 C51.50361731 93.2314055 54.74987842 102.61503355 58 112 C52.72 112 47.44 112 42 112 C39.03 104.08 36.06 96.16 33 88 C16.83 88 0.66 88 -16 88 C-18.97 95.92 -21.94 103.84 -25 112 C-30.28 112 -35.56 112 -41 112 C-39.48904645 107.73136382 -37.97763414 103.46289554 -36.46508789 99.19482422 C-35.95180341 97.74602437 -35.43877726 96.29713297 -34.92602539 94.84814453 C-34.18445402 92.7526819 -33.44192132 90.65756193 -32.69921875 88.5625 C-32.47409103 87.92570312 -32.24896332 87.28890625 -32.01701355 86.6328125 C-30.68202478 82.87036309 -29.30042859 79.12783225 -27.89286804 75.39202881 C-26.08047206 70.53654826 -24.31781089 65.66271442 -22.54556465 60.79246902 C-21.80123937 58.74739059 -21.05623428 56.70256101 -20.3110199 54.6578064 C-18.19414729 48.84941002 -16.07756608 43.04090866 -13.96362305 37.23144531 C-12.66473573 33.6620437 -11.36429638 30.09321077 -10.06287956 26.52473068 C-9.57159083 25.17673615 -9.08085943 23.82853834 -8.59073067 22.48012161 C-5.84753254 14.93395195 -3.02844813 7.43656697 0 0 Z " fill="#C9CACB" transform="translate(597,98)"/>
<path d="M0 0 C15 0 15 0 18.7265625 3.484375 C19.74548411 5.20948161 20.70731115 6.96897747 21.625 8.75 C22.84741865 10.84899656 24.07730533 12.94365247 25.3125 15.03515625 C25.82401108 15.92458672 25.82401108 15.92458672 26.34585571 16.83198547 C31.39901734 25.56948588 37.1097793 33.89616818 42.7008667 42.29431152 C45.78470995 46.93127703 48.84943615 51.58079 51.9140625 56.23046875 C52.43371582 57.01683212 52.95336914 57.8031955 53.48876953 58.61338806 C59.7105368 68.04272381 65.84276166 77.52732562 72 87 C72.33 58.29 72.66 29.58 73 0 C77.95 0 82.9 0 88 0 C88 37.29 88 74.58 88 113 C73 113 73 113 69.58251953 110.39013672 C68.43223572 108.63404846 68.43223572 108.63404846 67.3828125 106.6796875 C66.9612941 106.00586533 66.5397757 105.33204315 66.10548401 104.63780212 C64.7270824 102.41071895 63.42873916 100.14645145 62.125 97.875 C61.1656757 96.2981555 60.2004615 94.72488099 59.22973633 93.1550293 C57.18350841 89.8374086 55.16280131 86.50600683 53.15576172 83.16455078 C48.43940822 75.37424584 43.35752166 67.82362467 38.30828857 60.24688721 C35.73876944 56.3875285 33.18551671 52.51759544 30.63671875 48.64453125 C30.21451553 48.00692368 29.79231232 47.3693161 29.35731506 46.71238708 C24.42945555 39.2255392 19.75491142 31.60785827 15 24 C14.67 53.04 14.34 82.08 14 112 C9.38 112 4.76 112 0 112 C0 75.04 0 38.08 0 0 Z " fill="#CCCCCC" transform="translate(230,97)"/>
<path d="M0 0 C8.11955828 6.30445583 15.33949447 13.47724586 17 24 C5.32949309 25.31293203 5.32949309 25.31293203 0 24 C-2.87444685 21.5194909 -4.36349336 19.11153044 -6.25390625 15.8359375 C-8.95568574 11.44781242 -12.48173827 9.30219922 -17 7 C-17.65097656 6.66226563 -18.30195313 6.32453125 -18.97265625 5.9765625 C-27.85082331 2.24739021 -39.99763783 2.60337928 -49.0625 5.625 C-59.4955875 10.15494873 -67.77626125 18.32950212 -72 29 C-73.73108279 35.15851012 -74.35668454 41.05608214 -74.3125 47.4375 C-74.30831055 48.26934814 -74.30412109 49.10119629 -74.29980469 49.95825195 C-74.18767604 56.05315979 -73.48109269 61.3776097 -71 67 C-70.56494141 68.051875 -70.56494141 68.051875 -70.12109375 69.125 C-65.58469598 79.14683273 -58.34741201 84.79028361 -48.37109375 89.1484375 C-43.58463658 90.35753097 -38.98012688 90.32888117 -34.0625 90.3125 C-32.61713867 90.33666992 -32.61713867 90.33666992 -31.14257812 90.36132812 C-25.26527641 90.36534542 -21.2002753 89.76120812 -16 87 C-15.2059375 86.58621094 -14.411875 86.17242187 -13.59375 85.74609375 C-8.94337567 82.83960979 -6.58790249 80.49108261 -4 75.625 C-2.37109375 73.015625 -2.37109375 73.015625 0 71 C5.55707568 69.73218398 11.3866676 70.43172113 17 71 C13.80926956 81.40714881 7.04499536 90.52224502 -2.44921875 95.984375 C-5.91263346 97.77689179 -9.43292956 99.42315882 -13 101 C-13.84175781 101.37382812 -14.68351562 101.74765625 -15.55078125 102.1328125 C-21.79998804 104.34545031 -28.19936585 104.21459117 -34.75 104.25 C-35.6884375 104.270625 -36.626875 104.29125 -37.59375 104.3125 C-52.52114731 104.39497181 -64.48287739 98.09671619 -75.13671875 87.96875 C-85.71736933 76.84395167 -90.59880129 62.8536311 -90.4375 47.6875 C-90.42920166 46.6771167 -90.42090332 45.6667334 -90.41235352 44.62573242 C-90.07264606 29.573428 -84.77521572 16.86856124 -74.4375 5.75 C-54.55209532 -13.04579347 -22.52597302 -16.88507828 0 0 Z " fill="#CACACB" transform="translate(151,106)"/>
<path d="M0 0 C27.06 0 54.12 0 82 0 C82 5.94 82 11.88 82 18 C72.1 18 62.2 18 52 18 C52 49.02 52 80.04 52 112 C44.74 112 37.48 112 30 112 C30 80.98 30 49.96 30 18 C20.1 18 10.2 18 0 18 C0 12.06 0 6.12 0 0 Z " fill="#CFCFCF" transform="translate(751,79)"/>
<path d="M0 0 C19.8 0 39.6 0 60 0 C60 3.96 60 7.92 60 12 C44.82 12 29.64 12 14 12 C14 24.54 14 37.08 14 50 C27.53 50 41.06 50 55 50 C55 53.96 55 57.92 55 62 C41.8 62 28.6 62 15 62 C15 74.54 15 87.08 15 100 C29.85 100 44.7 100 60 100 C60 103.96 60 107.92 60 112 C40.2 112 20.4 112 0 112 C0 75.04 0 38.08 0 0 Z " fill="#CBCBCC" transform="translate(343,97)"/>
<path d="M0 0 C7.26 0 14.52 0 22 0 C22 36.96 22 73.92 22 112 C14.74 112 7.48 112 0 112 C0 75.04 0 38.08 0 0 Z " fill="#CFCFCF" transform="translate(850,79)"/>
<path d="M0 0 C4.95 0 9.9 0 15 0 C15 37.29 15 74.58 15 113 C10.05 113 5.1 113 0 113 C0 75.71 0 38.42 0 0 Z " fill="#C6C7C8" transform="translate(190,97)"/>
<path d="M0 0 C2.7776896 2.7776896 3.58656365 6.08374448 4.828125 9.7265625 C5.09961365 10.50703949 5.37110229 11.28751648 5.65081787 12.09164429 C6.52268002 14.60090684 7.38672298 17.1127723 8.25 19.625 C9.37736737 22.88900925 10.50831176 26.15176608 11.640625 29.4140625 C11.91765259 30.21475159 12.19468018 31.01544067 12.48010254 31.84039307 C14.6138297 37.97637342 16.86388273 44.06306463 19.21002197 50.1210022 C21 54.7909786 21 54.7909786 21 57 C7.47 57 -6.06 57 -20 57 C-16.63839286 45.79464286 -16.63839286 45.79464286 -15.125 41.75 C-13.64067142 37.73784868 -12.18182803 33.71872053 -10.75 29.6875 C-7.21646868 19.77367389 -3.60374411 9.88846969 0 0 Z " fill="#0A1441" transform="translate(605,116)"/>
</svg>
