<?xml version="1.0" encoding="UTF-8"?>
<!DOCTYPE svg PUBLIC "-//W3C//DTD SVG 1.1//EN" "http://www.w3.org/Graphics/SVG/1.1/DTD/svg11.dtd">
<svg xmlns="http://www.w3.org/2000/svg" version="1.1" width="1098px" height="286px" style="shape-rendering:geometricPrecision; text-rendering:geometricPrecision; image-rendering:optimizeQuality; fill-rule:evenodd; clip-rule:evenodd" xmlns:xlink="http://www.w3.org/1999/xlink">
<g><path style="opacity:0.994" fill="#fdfdfd" d="M 1017.5,209.5 C 914.167,209.5 810.833,209.5 707.5,209.5C 708.092,206.873 708.425,204.206 708.5,201.5C 708.565,198.572 709.232,195.905 710.5,193.5C 712.04,191.162 712.706,188.495 712.5,185.5C 712.676,182.273 713.343,179.273 714.5,176.5C 716.163,174.562 716.829,172.228 716.5,169.5C 718.524,159.404 720.858,149.404 723.5,139.5C 725.163,137.562 725.829,135.228 725.5,132.5C 727.04,130.162 727.706,127.495 727.5,124.5C 728.74,115.877 730.74,107.544 733.5,99.5C 735.281,95.8002 736.281,91.8002 736.5,87.5C 737.232,81.9063 738.565,76.5729 740.5,71.5C 742.04,69.1617 742.706,66.4951 742.5,63.5C 742.472,61.4176 743.139,59.5843 744.5,58C 835.5,57.3333 926.5,57.3333 1017.5,58C 1018.83,108.598 1018.83,159.098 1017.5,209.5 Z M 764.5,78.5 C 780.472,79.4387 796.472,79.7721 812.5,79.5C 822.833,79.5 833.167,79.5 843.5,79.5C 843.5,84.8333 843.5,90.1667 843.5,95.5C 833.985,95.1731 824.652,95.5064 815.5,96.5C 814.076,98.5145 813.41,100.848 813.5,103.5C 813.5,132.167 813.5,160.833 813.5,189.5C 806.833,189.5 800.167,189.5 793.5,189.5C 793.5,161.167 793.5,132.833 793.5,104.5C 792.922,101.72 792.255,99.0529 791.5,96.5C 782.348,95.5064 773.015,95.1731 763.5,95.5C 763.214,89.7414 763.548,84.0748 764.5,78.5 Z M 907.5,79.5 C 914.255,79.2066 920.922,79.5399 927.5,80.5C 928.34,82.8525 929.674,84.8525 931.5,86.5C 932.759,90.0246 934.759,93.0246 937.5,95.5C 937.328,96.4916 937.662,97.1583 938.5,97.5C 938.427,99.0269 939.094,100.027 940.5,100.5C 943.384,106.221 946.884,111.555 951,116.5C 951.399,116.272 951.565,115.938 951.5,115.5C 953.95,113.371 955.617,110.704 956.5,107.5C 957.674,106.486 958.34,105.153 958.5,103.5C 959.974,102.564 960.974,101.23 961.5,99.5C 961.5,99.1667 961.5,98.8333 961.5,98.5C 963.25,97.3406 964.25,95.674 964.5,93.5C 966.924,90.9922 968.59,87.9922 969.5,84.5C 970.167,84.5 970.5,84.1667 970.5,83.5C 971.364,82.3117 972.364,81.1451 973.5,80C 980.856,79.1687 988.189,79.3354 995.5,80.5C 994.873,81.4168 994.539,82.4168 994.5,83.5C 986.586,95.6574 978.919,107.991 971.5,120.5C 970.094,120.973 969.427,121.973 969.5,123.5C 965.687,127.448 963.854,132.115 964,137.5C 974.511,153.862 985.011,170.195 995.5,186.5C 995.804,187.15 996.137,187.817 996.5,188.5C 988.855,189.665 981.188,189.831 973.5,189C 972.956,188.283 972.289,187.783 971.5,187.5C 971.672,186.508 971.338,185.842 970.5,185.5C 970.573,183.973 969.906,182.973 968.5,182.5C 965.996,177.485 962.996,172.819 959.5,168.5C 957.327,164.148 954.66,160.148 951.5,156.5C 950.357,151.836 948.523,151.503 946,155.5C 939.809,166.554 933.643,177.554 927.5,188.5C 919.401,189.813 911.401,189.813 903.5,188.5C 905.89,185.434 907.89,182.1 909.5,178.5C 911.192,176.795 912.525,174.795 913.5,172.5C 914.674,171.486 915.34,170.153 915.5,168.5C 917.063,167.055 918.396,165.389 919.5,163.5C 920.11,162.609 920.443,161.609 920.5,160.5C 922.522,158.469 924.189,156.135 925.5,153.5C 926.338,153.158 926.672,152.492 926.5,151.5C 928.588,149.664 929.921,147.331 930.5,144.5C 935.514,140.491 937.014,135.491 935,129.5C 932.812,126.433 930.645,123.433 928.5,120.5C 928.573,118.973 927.906,117.973 926.5,117.5C 922.747,110.99 918.747,104.656 914.5,98.5C 914.573,96.9731 913.906,95.9731 912.5,95.5C 912.573,93.9731 911.906,92.9731 910.5,92.5C 909.66,90.1475 908.326,88.1475 906.5,86.5C 905.89,84.5659 904.89,82.8993 903.5,81.5C 903.5,80.5 903.5,79.5 903.5,78.5C 904.959,78.4326 906.292,78.7659 907.5,79.5 Z M 862.5,79.5 C 869.167,79.5 875.833,79.5 882.5,79.5C 882.5,116.167 882.5,152.833 882.5,189.5C 875.833,189.5 869.167,189.5 862.5,189.5C 862.5,152.833 862.5,116.167 862.5,79.5 Z"/></g>
<g><path style="opacity:0.063" fill="#dcdcdc" d="M 742.5,63.5 C 742.706,66.4951 742.04,69.1617 740.5,71.5C 740.565,68.5718 741.232,65.9052 742.5,63.5 Z"/></g>
<g><path style="opacity:0.778" fill="#e4e4e4" d="M 719.5,77.5 C 497.833,77.5 276.167,77.5 54.5,77.5C 54.8104,127.853 54.477,178.186 53.5,228.5C 52.1676,178.098 52.1676,127.598 53.5,77C 275.667,76.167 497.667,76.3337 719.5,77.5 Z"/></g>
<g><path style="opacity:0.994" fill="#fdfdfd" d="M 719.5,77.5 C 720.586,77.62 721.253,78.2867 721.5,79.5C 721.457,80.4164 721.124,81.0831 720.5,81.5C 719.087,84.2186 718.42,87.2186 718.5,90.5C 716.075,97.206 714.408,104.206 713.5,111.5C 711.96,113.838 711.294,116.505 711.5,119.5C 711.768,121.099 711.434,122.432 710.5,123.5C 708.755,127.2 707.755,131.2 707.5,135.5C 705.898,139.239 704.898,143.239 704.5,147.5C 704.768,149.099 704.434,150.432 703.5,151.5C 696.881,175.909 690.881,200.575 685.5,225.5C 685.64,227.124 684.973,228.29 683.5,229C 473.333,229.833 263.333,229.666 53.5,228.5C 54.477,178.186 54.8104,127.853 54.5,77.5C 276.167,77.5 497.833,77.5 719.5,77.5 Z M 142.5,97.5 C 144.599,98.6118 146.933,99.2785 149.5,99.5C 153.953,101.561 158.287,103.894 162.5,106.5C 163.833,108.5 165.5,110.167 167.5,111.5C 168.833,113.5 170.5,115.167 172.5,116.5C 174.181,119.203 175.847,121.869 177.5,124.5C 177.33,125.822 177.663,126.989 178.5,128C 172.751,128.785 167.084,128.618 161.5,127.5C 157.803,118.956 151.469,113.122 142.5,110C 141.207,109.51 139.873,109.343 138.5,109.5C 133.233,107.572 127.9,107.239 122.5,108.5C 119.171,108.215 116.171,108.882 113.5,110.5C 107.782,111.889 103.115,114.889 99.5,119.5C 97.086,120.911 95.4194,122.911 94.5,125.5C 91.7933,128.247 90.1266,131.58 89.5,135.5C 84.3272,147.154 84.3272,158.821 89.5,170.5C 89.4021,172.553 90.0687,174.22 91.5,175.5C 92.9462,180.061 95.6129,183.728 99.5,186.5C 100.585,188.587 102.251,189.92 104.5,190.5C 105.659,192.25 107.326,193.25 109.5,193.5C 118.938,198.413 128.938,199.579 139.5,197C 141.491,196.626 143.158,195.793 144.5,194.5C 152.766,191.9 158.433,186.566 161.5,178.5C 167.266,177.196 172.933,177.196 178.5,178.5C 176.659,180.849 175.326,183.515 174.5,186.5C 170.5,191.167 166.167,195.5 161.5,199.5C 159.326,199.75 157.659,200.75 156.5,202.5C 154.181,202.992 152.181,203.992 150.5,205.5C 147.848,205.41 145.515,206.076 143.5,207.5C 133.496,208.802 123.496,208.802 113.5,207.5C 111.401,206.388 109.067,205.721 106.5,205.5C 80.6512,192.14 69.8178,170.807 74,141.5C 74.8379,138.148 75.6712,134.815 76.5,131.5C 78.0652,129.491 79.0652,127.157 79.5,124.5C 86.3231,113.343 95.6564,105.01 107.5,99.5C 110.067,99.2785 112.401,98.6118 114.5,97.5C 123.838,96.2612 133.172,96.2612 142.5,97.5 Z M 256.5,98.5 C 258.167,101.167 259.833,103.833 261.5,106.5C 263.354,110.221 265.687,113.554 268.5,116.5C 277.115,130.443 286.115,144.109 295.5,157.5C 296.351,159.882 297.684,161.882 299.5,163.5C 299.427,165.027 300.094,166.027 301.5,166.5C 301.427,168.027 302.094,169.027 303.5,169.5C 303.75,171.674 304.75,173.341 306.5,174.5C 306.427,176.027 307.094,177.027 308.5,177.5C 309.809,180.778 311.642,183.778 314,186.5C 314.333,186.167 314.667,185.833 315,185.5C 315.333,156.5 315.667,127.5 316,98.5C 320.267,97.178 324.434,97.178 328.5,98.5C 329.16,135.182 328.494,171.515 326.5,207.5C 323.221,208.492 319.888,208.659 316.5,208C 314.503,206.807 312.836,205.307 311.5,203.5C 306.328,194.483 300.661,185.817 294.5,177.5C 294.573,175.973 293.906,174.973 292.5,174.5C 292.573,172.973 291.906,171.973 290.5,171.5C 289.617,168.296 287.95,165.629 285.5,163.5C 285.262,161.596 284.262,160.262 282.5,159.5C 278.662,152.484 274.328,145.817 269.5,139.5C 269.573,137.973 268.906,136.973 267.5,136.5C 267.573,134.973 266.906,133.973 265.5,133.5C 263.327,129.148 260.66,125.148 257.5,121.5C 257.179,119.952 256.179,119.285 254.5,119.5C 254.5,133.833 254.5,148.167 254.5,162.5C 254.5,177.5 254.5,192.5 254.5,207.5C 250.5,207.5 246.5,207.5 242.5,207.5C 242.5,170.833 242.5,134.167 242.5,97.5C 247.263,97.2256 251.93,97.559 256.5,98.5 Z M 404.5,107.5 C 392.813,107.334 381.146,107.667 369.5,108.5C 368.778,108.918 368.278,109.584 368,110.5C 367.174,122.674 367.34,134.674 368.5,146.5C 381.656,147.496 394.99,147.829 408.5,147.5C 408.5,150.833 408.5,154.167 408.5,157.5C 394.99,157.171 381.656,157.504 368.5,158.5C 367.34,170.993 367.173,183.66 368,196.5C 369.401,198.192 371.234,198.859 373.5,198.5C 386.167,198.5 398.833,198.5 411.5,198.5C 413.388,200.988 414.055,203.988 413.5,207.5C 394.167,207.5 374.833,207.5 355.5,207.5C 355.5,172.833 355.5,138.167 355.5,103.5C 355.5,101.5 355.5,99.5 355.5,97.5C 374.833,97.5 394.167,97.5 413.5,97.5C 413.5,100.833 413.5,104.167 413.5,107.5C 410.5,107.5 407.5,107.5 404.5,107.5 Z M 453.5,101.5 C 458.656,114.472 464.322,127.138 470.5,139.5C 470.66,141.153 471.326,142.486 472.5,143.5C 472.328,144.492 472.662,145.158 473.5,145.5C 473.707,148.241 474.707,150.574 476.5,152.5C 477.716,157.262 479.716,161.595 482.5,165.5C 482.402,167.553 483.069,169.22 484.5,170.5C 484.66,172.153 485.326,173.486 486.5,174.5C 486.707,177.241 487.707,179.574 489.5,181.5C 489.794,184.754 491.127,187.421 493.5,189.5C 493.833,189.5 494.167,189.5 494.5,189.5C 496.293,187.574 497.293,185.241 497.5,182.5C 503.344,170.804 508.678,158.804 513.5,146.5C 515.625,143.912 516.958,140.912 517.5,137.5C 523.678,125.138 529.344,112.472 534.5,99.5C 539.334,98.1922 544.167,98.1922 549,99.5C 549.5,135.498 549.667,171.498 549.5,207.5C 548.167,207.5 546.833,207.5 545.5,207.5C 542.498,208.928 539.665,208.595 537,206.5C 536.832,180.33 536.332,154.33 535.5,128.5C 535.167,127.167 534.833,127.167 534.5,128.5C 532.127,130.579 530.794,133.246 530.5,136.5C 529.662,136.842 529.328,137.508 529.5,138.5C 528.069,139.78 527.402,141.447 527.5,143.5C 519.935,158.839 512.935,174.505 506.5,190.5C 505.326,191.514 504.66,192.847 504.5,194.5C 502.278,198.277 500.611,202.277 499.5,206.5C 496.094,208.793 492.427,209.126 488.5,207.5C 487.736,204.982 486.736,202.649 485.5,200.5C 485.34,198.847 484.674,197.514 483.5,196.5C 473.302,173.237 463.302,149.903 453.5,126.5C 452.209,126.263 451.209,126.596 450.5,127.5C 450.831,154.339 450.498,181.005 449.5,207.5C 445.512,209.023 441.679,208.689 438,206.5C 437.5,170.502 437.333,134.502 437.5,98.5C 442.179,98.3342 446.845,98.5008 451.5,99C 452.066,99.9947 452.733,100.828 453.5,101.5 Z M 625.5,99.5 C 626.129,102.397 627.129,105.064 628.5,107.5C 628.629,109.216 628.962,110.883 629.5,112.5C 629.932,113.71 630.599,114.71 631.5,115.5C 631.963,118.221 632.629,120.888 633.5,123.5C 635.656,129.319 637.99,134.985 640.5,140.5C 640.733,143.542 641.733,146.208 643.5,148.5C 643.263,149.791 643.596,150.791 644.5,151.5C 644.402,153.553 645.069,155.22 646.5,156.5C 651.459,171.714 656.792,186.714 662.5,201.5C 664.951,206.829 663.285,209.163 657.5,208.5C 655.833,208.333 654.167,208.167 652.5,208C 650.752,205.987 649.418,203.82 648.5,201.5C 648.02,198.557 647.02,195.89 645.5,193.5C 644.917,190.053 643.584,187.053 641.5,184.5C 637.091,183.021 632.424,182.354 627.5,182.5C 620.311,183.405 613.144,183.405 606,182.5C 601.335,183.022 596.835,183.689 592.5,184.5C 590.078,188.076 588.411,192.076 587.5,196.5C 585.795,200.415 583.795,204.249 581.5,208C 578.167,208.667 574.833,208.667 571.5,208C 570.667,205.919 570.667,203.752 571.5,201.5C 572.738,199.786 573.405,197.786 573.5,195.5C 575.267,193.208 576.267,190.542 576.5,187.5C 578.267,185.208 579.267,182.542 579.5,179.5C 582.269,174.199 584.269,168.532 585.5,162.5C 587.267,160.208 588.267,157.542 588.5,154.5C 589.404,153.791 589.737,152.791 589.5,151.5C 591.267,149.208 592.267,146.542 592.5,143.5C 593.404,142.791 593.737,141.791 593.5,140.5C 594.931,139.22 595.598,137.553 595.5,135.5C 600.208,123.716 604.541,111.716 608.5,99.5C 614.167,98.1667 619.833,98.1667 625.5,99.5 Z M 211.5,97.5 C 212.822,97.33 213.989,97.6634 215,98.5C 215.829,134.738 215.663,170.905 214.5,207C 210.577,207.793 206.744,207.626 203,206.5C 202.5,170.502 202.333,134.502 202.5,98.5C 205.713,98.81 208.713,98.4767 211.5,97.5 Z"/></g>
<g><path style="opacity:0.653" fill="#e5e5e5" d="M 762.5,78.5 C 789.833,77.1667 817.167,77.1667 844.5,78.5C 833.654,78.1722 822.987,78.5056 812.5,79.5C 796.472,79.7721 780.472,79.4387 764.5,78.5C 763.833,78.5 763.167,78.5 762.5,78.5 Z"/></g>
<g><path style="opacity:0.675" fill="#ededed" d="M 926.5,78.5 C 919.978,78.1765 913.645,78.5098 907.5,79.5C 906.292,78.7659 904.959,78.4326 903.5,78.5C 903.5,79.5 903.5,80.5 903.5,81.5C 902.548,80.548 901.548,79.548 900.5,78.5C 909.325,77.1786 917.991,77.1786 926.5,78.5 Z"/></g>
<g><path style="opacity:0.058" fill="#c9c9c9" d="M 812.5,79.5 C 822.987,78.5056 833.654,78.1722 844.5,78.5C 844.5,84.5 844.5,90.5 844.5,96.5C 834.833,96.5 825.167,96.5 815.5,96.5C 824.652,95.5064 833.985,95.1731 843.5,95.5C 843.5,90.1667 843.5,84.8333 843.5,79.5C 833.167,79.5 822.833,79.5 812.5,79.5 Z"/></g>
<g><path style="opacity:0.069" fill="#c8c8c8" d="M 907.5,79.5 C 913.645,78.5098 919.978,78.1765 926.5,78.5C 927.338,78.8417 927.672,79.5084 927.5,80.5C 920.922,79.5399 914.255,79.2066 907.5,79.5 Z"/></g>
<g><path style="opacity:0.082" fill="#cacaca" d="M 994.5,83.5 C 994.539,82.4168 994.873,81.4168 995.5,80.5C 988.189,79.3354 980.856,79.1687 973.5,80C 972.364,81.1451 971.364,82.3117 970.5,83.5C 970.297,81.6096 970.963,80.1096 972.5,79C 980.833,78.3333 989.167,78.3333 997.5,79C 996.947,80.8778 995.947,82.3778 994.5,83.5 Z"/></g>
<g><path style="opacity:0.499" fill="#e7e7e7" d="M 883.5,78.5 C 876.167,78.5 868.833,78.5 861.5,78.5C 861.5,115.833 861.5,153.167 861.5,190.5C 860.502,153.004 860.168,115.337 860.5,77.5C 868.352,77.1746 876.018,77.508 883.5,78.5 Z"/></g>
<g><path style="opacity:0.071" fill="#d0d0d0" d="M 720.5,81.5 C 720.58,84.7814 719.913,87.7814 718.5,90.5C 718.42,87.2186 719.087,84.2186 720.5,81.5 Z"/></g>
<g><path style="opacity:0.408" fill="#dddddd" d="M 906.5,86.5 C 908.326,88.1475 909.66,90.1475 910.5,92.5C 908.178,91.1979 906.845,89.1979 906.5,86.5 Z"/></g>
<g><path style="opacity:0.02" fill="#d6d6d6" d="M 969.5,84.5 C 968.59,87.9922 966.924,90.9922 964.5,93.5C 965.41,90.0078 967.076,87.0078 969.5,84.5 Z"/></g>
<g><path style="opacity:0.349" fill="#dbdbdb" d="M 736.5,87.5 C 736.281,91.8002 735.281,95.8002 733.5,99.5C 733.584,95.1629 734.584,91.1629 736.5,87.5 Z"/></g>
<g><path style="opacity:0.337" fill="#dddddd" d="M 931.5,86.5 C 934.277,88.9505 936.277,91.9505 937.5,95.5C 934.759,93.0246 932.759,90.0246 931.5,86.5 Z"/></g>
<g><path style="opacity:0.118" fill="#cecece" d="M 718.5,90.5 C 717.592,97.793 715.926,104.793 713.5,111.5C 714.408,104.206 716.075,97.206 718.5,90.5 Z"/></g>
<g><path style="opacity:0.141" fill="#c9c9c9" d="M 762.5,78.5 C 763.167,78.5 763.833,78.5 764.5,78.5C 763.548,84.0748 763.214,89.7414 763.5,95.5C 773.015,95.1731 782.348,95.5064 791.5,96.5C 781.833,96.5 772.167,96.5 762.5,96.5C 762.5,90.5 762.5,84.5 762.5,78.5 Z"/></g>
<g><path style="opacity:0.231" fill="#d3d3d3" d="M 910.5,92.5 C 911.906,92.9731 912.573,93.9731 912.5,95.5C 911.094,95.0269 910.427,94.0269 910.5,92.5 Z"/></g>
<g><path style="opacity:0.118" fill="#d1d1d1" d="M 964.5,93.5 C 964.25,95.674 963.25,97.3406 961.5,98.5C 961.75,96.326 962.75,94.6594 964.5,93.5 Z"/></g>
<g><path style="opacity:0.249" fill="#d5d5d5" d="M 407.5,109.5 C 406.5,108.833 405.5,108.167 404.5,107.5C 407.5,107.5 410.5,107.5 413.5,107.5C 413.5,104.167 413.5,100.833 413.5,97.5C 394.167,97.5 374.833,97.5 355.5,97.5C 355.5,99.5 355.5,101.5 355.5,103.5C 355.167,103.5 354.833,103.5 354.5,103.5C 354.5,101.167 354.5,98.8333 354.5,96.5C 374.5,96.5 394.5,96.5 414.5,96.5C 414.5,100.833 414.5,105.167 414.5,109.5C 412.167,109.5 409.833,109.5 407.5,109.5 Z"/></g>
<g><path style="opacity:0.667" fill="#dfdfdf" d="M 142.5,97.5 C 145.228,97.1706 147.562,97.8372 149.5,99.5C 146.933,99.2785 144.599,98.6118 142.5,97.5 Z"/></g>
<g><path style="opacity:0.096" fill="#cacaca" d="M 625.5,99.5 C 619.833,98.1667 614.167,98.1667 608.5,99.5C 610.915,98.1858 613.748,97.5191 617,97.5C 620.252,97.5191 623.085,98.1858 625.5,99.5 Z"/></g>
<g><path style="opacity:0.141" fill="#cacaca" d="M 912.5,95.5 C 913.906,95.9731 914.573,96.9731 914.5,98.5C 913.094,98.0269 912.427,97.0269 912.5,95.5 Z"/></g>
<g><path style="opacity:0.141" fill="#d7d7d7" d="M 114.5,97.5 C 112.401,98.6118 110.067,99.2785 107.5,99.5C 109.438,97.8372 111.772,97.1706 114.5,97.5 Z"/></g>
<g><path style="opacity:0.665" fill="#f1f1f1" d="M 791.5,96.5 C 792.255,99.0529 792.922,101.72 793.5,104.5C 792.502,132.995 792.169,161.662 792.5,190.5C 791.502,159.338 791.168,128.004 791.5,96.5 Z"/></g>
<g><path style="opacity:0.592" fill="#f1f1f1" d="M 815.5,96.5 C 815.832,128.004 815.498,159.338 814.5,190.5C 814.831,161.329 814.498,132.329 813.5,103.5C 813.41,100.848 814.076,98.5145 815.5,96.5 Z"/></g>
<g><path style="opacity:0.055" fill="#cccccc" d="M 938.5,97.5 C 939.906,97.9731 940.573,98.9731 940.5,100.5C 939.094,100.027 938.427,99.0269 938.5,97.5 Z"/></g>
<g><path style="opacity:0.118" fill="#cdcdcd" d="M 961.5,99.5 C 960.974,101.23 959.974,102.564 958.5,103.5C 958.554,101.368 959.554,100.035 961.5,99.5 Z"/></g>
<g><path style="opacity:0.447" fill="#dcdcdc" d="M 122.5,108.5 C 127.9,107.239 133.233,107.572 138.5,109.5C 133.167,109.167 127.833,108.833 122.5,108.5 Z"/></g>
<g><path style="opacity:0.29" fill="#cdcdcd" d="M 162.5,106.5 C 165.167,107.167 166.833,108.833 167.5,111.5C 165.5,110.167 163.833,108.5 162.5,106.5 Z"/></g>
<g><path style="opacity:0.482" fill="#e2e2e2" d="M 404.5,107.5 C 405.5,108.167 406.5,108.833 407.5,109.5C 394.833,109.5 382.167,109.5 369.5,109.5C 369.5,109.167 369.5,108.833 369.5,108.5C 381.146,107.667 392.813,107.334 404.5,107.5 Z"/></g>
<g><path style="opacity:0.086" fill="#d9d9d9" d="M 122.5,108.5 C 119.727,109.657 116.727,110.324 113.5,110.5C 116.171,108.882 119.171,108.215 122.5,108.5 Z"/></g>
<g><path style="opacity:0.492" fill="#d9d9d9" d="M 369.5,108.5 C 369.5,108.833 369.5,109.167 369.5,109.5C 369.5,121.5 369.5,133.5 369.5,145.5C 369.5,145.833 369.5,146.167 369.5,146.5C 369.167,146.5 368.833,146.5 368.5,146.5C 367.34,134.674 367.174,122.674 368,110.5C 368.278,109.584 368.778,108.918 369.5,108.5 Z"/></g>
<g><path style="opacity:0.173" fill="#d8d8d8" d="M 261.5,106.5 C 264.792,109.057 267.126,112.391 268.5,116.5C 265.687,113.554 263.354,110.221 261.5,106.5 Z"/></g>
<g><path style="opacity:0.141" fill="#cecece" d="M 628.5,107.5 C 630.345,108.995 630.678,110.662 629.5,112.5C 628.962,110.883 628.629,109.216 628.5,107.5 Z"/></g>
<g><path style="opacity:0.183" fill="#d8d8d8" d="M 453.5,101.5 C 452.733,100.828 452.066,99.9947 451.5,99C 446.845,98.5008 442.179,98.3342 437.5,98.5C 437.333,134.502 437.5,170.502 438,206.5C 441.679,208.689 445.512,209.023 449.5,207.5C 449.842,208.338 450.508,208.672 451.5,208.5C 446.695,209.487 441.695,209.821 436.5,209.5C 436.5,172.167 436.5,134.833 436.5,97.5C 441.844,97.334 447.177,97.5006 452.5,98C 453.337,99.0113 453.67,100.178 453.5,101.5 Z"/></g>
<g><path style="opacity:0.161" fill="#cfcfcf" d="M 713.5,111.5 C 713.435,114.428 712.768,117.095 711.5,119.5C 711.294,116.505 711.96,113.838 713.5,111.5 Z"/></g>
<g><path style="opacity:0.096" fill="#cacaca" d="M 328.5,98.5 C 328.833,98.5 329.167,98.5 329.5,98.5C 329.5,135.167 329.5,171.833 329.5,208.5C 328.209,208.737 327.209,208.404 326.5,207.5C 328.494,171.515 329.16,135.182 328.5,98.5 Z"/></g>
<g><path style="opacity:0.161" fill="#d2d2d2" d="M 956.5,107.5 C 955.617,110.704 953.95,113.371 951.5,115.5C 952.383,112.296 954.05,109.629 956.5,107.5 Z"/></g>
<g><path style="opacity:0.187" fill="#d6d6d6" d="M 201.5,96.5 C 206.5,96.5 211.5,96.5 216.5,96.5C 216.5,134.167 216.5,171.833 216.5,209.5C 211.5,209.5 206.5,209.5 201.5,209.5C 201.5,171.833 201.5,134.167 201.5,96.5 Z M 211.5,97.5 C 208.713,98.4767 205.713,98.81 202.5,98.5C 202.333,134.502 202.5,170.502 203,206.5C 206.744,207.626 210.577,207.793 214.5,207C 215.663,170.905 215.829,134.738 215,98.5C 213.989,97.6634 212.822,97.33 211.5,97.5 Z"/></g>
<g><path style="opacity:0.027" fill="#d7d7d7" d="M 167.5,111.5 C 170.167,112.167 171.833,113.833 172.5,116.5C 170.5,115.167 168.833,113.5 167.5,111.5 Z"/></g>
<g><path style="opacity:0.991" fill="#fbfbfb" d="M 617.5,115.5 C 618.256,119.767 619.589,123.767 621.5,127.5C 627.068,140.862 632.068,154.528 636.5,168.5C 636.5,169.833 636.5,171.167 636.5,172.5C 623.5,172.5 610.5,172.5 597.5,172.5C 597.5,171.167 597.5,169.833 597.5,168.5C 603.347,151.301 609.347,134.134 615.5,117C 615.836,115.97 616.503,115.47 617.5,115.5 Z"/></g>
<g><path style="opacity:0.141" fill="#d1d1d1" d="M 926.5,117.5 C 927.906,117.973 928.573,118.973 928.5,120.5C 927.094,120.027 926.427,119.027 926.5,117.5 Z"/></g>
<g><path style="opacity:0.024" fill="#d2d2d2" d="M 631.5,115.5 C 633.663,117.954 634.33,120.62 633.5,123.5C 632.629,120.888 631.963,118.221 631.5,115.5 Z"/></g>
<g><path style="opacity:0.127" fill="#e1e1e1" d="M 617.5,115.5 C 619.806,119.085 621.139,123.085 621.5,127.5C 619.589,123.767 618.256,119.767 617.5,115.5 Z"/></g>
<g><path style="opacity:0.565" fill="#dddddd" d="M 99.5,119.5 C 98.5806,122.089 96.914,124.089 94.5,125.5C 95.4194,122.911 97.086,120.911 99.5,119.5 Z"/></g>
<g><path style="opacity:0.2" fill="#d3d3d3" d="M 971.5,120.5 C 971.573,122.027 970.906,123.027 969.5,123.5C 969.427,121.973 970.094,120.973 971.5,120.5 Z"/></g>
<g><path style="opacity:0.076" fill="#cccccc" d="M 177.5,124.5 C 178.931,125.78 179.598,127.447 179.5,129.5C 173.074,130.12 167.074,129.453 161.5,127.5C 167.084,128.618 172.751,128.785 178.5,128C 177.663,126.989 177.33,125.822 177.5,124.5 Z"/></g>
<g><path style="opacity:0.143" fill="#cacaca" d="M 710.5,123.5 C 710.245,127.8 709.245,131.8 707.5,135.5C 707.755,131.2 708.755,127.2 710.5,123.5 Z"/></g>
<g><path style="opacity:0.153" fill="#d4d4d4" d="M 79.5,124.5 C 79.0652,127.157 78.0652,129.491 76.5,131.5C 76.5516,128.654 77.5516,126.32 79.5,124.5 Z"/></g>
<g><path style="opacity:0.512" fill="#e3e3e3" d="M 241.5,96.5 C 241.5,133.833 241.5,171.167 241.5,208.5C 246.167,208.5 250.833,208.5 255.5,208.5C 255.83,192.991 255.496,177.658 254.5,162.5C 254.5,148.167 254.5,133.833 254.5,119.5C 256.179,119.285 257.179,119.952 257.5,121.5C 256.502,150.662 256.169,179.995 256.5,209.5C 251.167,209.5 245.833,209.5 240.5,209.5C 240.168,171.663 240.502,133.996 241.5,96.5 Z"/></g>
<g><path style="opacity:0.18" fill="#d7d7d7" d="M 329.5,98.5 C 329.167,98.5 328.833,98.5 328.5,98.5C 324.434,97.178 320.267,97.178 316,98.5C 315.667,127.5 315.333,156.5 315,185.5C 314.667,185.833 314.333,186.167 314,186.5C 311.642,183.778 309.809,180.778 308.5,177.5C 310.796,179.401 312.629,181.734 314,184.5C 314.5,155.169 314.667,125.835 314.5,96.5C 319.944,95.8917 324.944,96.5583 329.5,98.5 Z"/></g>
<g><path style="opacity:0.098" fill="#d4d4d4" d="M 534.5,128.5 C 533.674,131.485 532.341,134.151 530.5,136.5C 530.794,133.246 532.127,130.579 534.5,128.5 Z"/></g>
<g><path style="opacity:0.31" fill="#d9d9d9" d="M 727.5,124.5 C 727.706,127.495 727.04,130.162 725.5,132.5C 725.294,129.505 725.96,126.838 727.5,124.5 Z"/></g>
<g><path style="opacity:0.173" fill="#d3d3d3" d="M 265.5,133.5 C 266.906,133.973 267.573,134.973 267.5,136.5C 266.094,136.027 265.427,135.027 265.5,133.5 Z"/></g>
<g><path style="opacity:0.502" fill="#d9d9d9" d="M 725.5,132.5 C 725.829,135.228 725.163,137.562 723.5,139.5C 723.721,136.933 724.388,134.599 725.5,132.5 Z"/></g>
<g><path style="opacity:0.153" fill="#cfcfcf" d="M 267.5,136.5 C 268.906,136.973 269.573,137.973 269.5,139.5C 268.094,139.027 267.427,138.027 267.5,136.5 Z"/></g>
<g><path style="opacity:0.141" fill="#d2d2d2" d="M 595.5,135.5 C 595.598,137.553 594.931,139.22 593.5,140.5C 593.402,138.447 594.069,136.78 595.5,135.5 Z"/></g>
<g><path style="opacity:0.056" fill="#c7c7c7" d="M 883.5,78.5 C 883.5,115.833 883.5,153.167 883.5,190.5C 876.167,190.5 868.833,190.5 861.5,190.5C 861.5,153.167 861.5,115.833 861.5,78.5C 868.833,78.5 876.167,78.5 883.5,78.5 Z M 862.5,79.5 C 862.5,116.167 862.5,152.833 862.5,189.5C 869.167,189.5 875.833,189.5 882.5,189.5C 882.5,152.833 882.5,116.167 882.5,79.5C 875.833,79.5 869.167,79.5 862.5,79.5 Z"/></g>
<g><path style="opacity:0.102" fill="#d3d3d3" d="M 517.5,137.5 C 516.958,140.912 515.625,143.912 513.5,146.5C 514.042,143.088 515.375,140.088 517.5,137.5 Z"/></g>
<g><path style="opacity:0.059" fill="#d0d0d0" d="M 529.5,138.5 C 529.598,140.553 528.931,142.22 527.5,143.5C 527.402,141.447 528.069,139.78 529.5,138.5 Z"/></g>
<g><path style="opacity:0.314" fill="#d4d4d4" d="M 89.5,135.5 C 86.8689,147.153 86.8689,158.82 89.5,170.5C 84.3272,158.821 84.3272,147.154 89.5,135.5 Z"/></g>
<g><path style="opacity:0.063" fill="#cdcdcd" d="M 241.5,96.5 C 246.944,95.8917 251.944,96.5583 256.5,98.5C 251.93,97.559 247.263,97.2256 242.5,97.5C 242.5,134.167 242.5,170.833 242.5,207.5C 246.5,207.5 250.5,207.5 254.5,207.5C 254.5,192.5 254.5,177.5 254.5,162.5C 255.496,177.658 255.83,192.991 255.5,208.5C 250.833,208.5 246.167,208.5 241.5,208.5C 241.5,171.167 241.5,133.833 241.5,96.5 Z"/></g>
<g><path style="opacity:0.173" fill="#d3d3d3" d="M 470.5,139.5 C 472.104,140.287 472.771,141.62 472.5,143.5C 471.326,142.486 470.66,141.153 470.5,139.5 Z"/></g>
<g><path style="opacity:0.525" fill="#dfdfdf" d="M 640.5,140.5 C 642.397,142.698 643.397,145.364 643.5,148.5C 641.733,146.208 640.733,143.542 640.5,140.5 Z"/></g>
<g><path style="opacity:0.059" fill="#cccccc" d="M 707.5,135.5 C 707.416,139.837 706.416,143.837 704.5,147.5C 704.898,143.239 705.898,139.239 707.5,135.5 Z"/></g>
<g><path style="opacity:0.693" fill="#f0f0f0" d="M 369.5,146.5 C 369.5,146.167 369.5,145.833 369.5,145.5C 383.167,145.5 396.833,145.5 410.5,145.5C 410.818,150.032 410.485,154.366 409.5,158.5C 409.5,154.5 409.5,150.5 409.5,146.5C 396.167,146.5 382.833,146.5 369.5,146.5 Z"/></g>
<g><path style="opacity:0.08" fill="#c9c9c9" d="M 368.5,146.5 C 368.833,146.5 369.167,146.5 369.5,146.5C 382.833,146.5 396.167,146.5 409.5,146.5C 409.5,150.5 409.5,154.5 409.5,158.5C 396.167,158.5 382.833,158.5 369.5,158.5C 369.167,158.5 368.833,158.5 368.5,158.5C 381.656,157.504 394.99,157.171 408.5,157.5C 408.5,154.167 408.5,150.833 408.5,147.5C 394.99,147.829 381.656,147.496 368.5,146.5 Z"/></g>
<g><path style="opacity:0.094" fill="#d2d2d2" d="M 473.5,145.5 C 475.293,147.426 476.293,149.759 476.5,152.5C 474.707,150.574 473.707,148.241 473.5,145.5 Z"/></g>
<g><path style="opacity:0.129" fill="#d1d1d1" d="M 592.5,143.5 C 592.267,146.542 591.267,149.208 589.5,151.5C 589.733,148.458 590.733,145.792 592.5,143.5 Z"/></g>
<g><path style="opacity:0.157" fill="#d2d2d2" d="M 930.5,144.5 C 929.921,147.331 928.588,149.664 926.5,151.5C 926.998,148.674 928.331,146.34 930.5,144.5 Z"/></g>
<g><path style="opacity:0.193" fill="#d8d8d8" d="M 535.5,128.5 C 536.332,154.33 536.832,180.33 537,206.5C 539.665,208.595 542.498,208.928 545.5,207.5C 546.919,208.451 548.585,208.784 550.5,208.5C 545.695,209.487 540.695,209.821 535.5,209.5C 535.5,182.5 535.5,155.5 535.5,128.5 Z"/></g>
<g><path style="opacity:0.118" fill="#cacaca" d="M 550.5,208.5 C 548.585,208.784 546.919,208.451 545.5,207.5C 546.833,207.5 548.167,207.5 549.5,207.5C 549.667,171.498 549.5,135.498 549,99.5C 544.167,98.1922 539.334,98.1922 534.5,99.5C 539.396,97.5539 544.729,96.8872 550.5,97.5C 550.5,134.5 550.5,171.5 550.5,208.5 Z"/></g>
<g><path style="opacity:0.18" fill="#d3d3d3" d="M 644.5,151.5 C 645.931,152.78 646.598,154.447 646.5,156.5C 645.069,155.22 644.402,153.553 644.5,151.5 Z"/></g>
<g><path style="opacity:0.063" fill="#d2d2d2" d="M 703.5,151.5 C 698.417,176.494 692.417,201.161 685.5,225.5C 690.881,200.575 696.881,175.909 703.5,151.5 Z"/></g>
<g><path style="opacity:0.043" fill="#d1d1d1" d="M 925.5,153.5 C 924.189,156.135 922.522,158.469 920.5,160.5C 921.128,157.91 922.295,155.577 924,153.5C 924.69,152.262 925.19,152.262 925.5,153.5 Z"/></g>
<g><path style="opacity:0.492" fill="#d9d9d9" d="M 368.5,158.5 C 368.833,158.5 369.167,158.5 369.5,158.5C 369.5,171.167 369.5,183.833 369.5,196.5C 370.833,197.167 372.167,197.833 373.5,198.5C 371.234,198.859 369.401,198.192 368,196.5C 367.173,183.66 367.34,170.993 368.5,158.5 Z"/></g>
<g><path style="opacity:0.076" fill="#c9c9c9" d="M 354.5,103.5 C 354.833,103.5 355.167,103.5 355.5,103.5C 355.5,138.167 355.5,172.833 355.5,207.5C 374.833,207.5 394.167,207.5 413.5,207.5C 414.055,203.988 413.388,200.988 411.5,198.5C 412.209,197.596 413.209,197.263 414.5,197.5C 414.5,201.167 414.5,204.833 414.5,208.5C 394.5,208.5 374.5,208.5 354.5,208.5C 354.5,173.5 354.5,138.5 354.5,103.5 Z"/></g>
<g><path style="opacity:0.122" fill="#dbdbdb" d="M 588.5,154.5 C 588.267,157.542 587.267,160.208 585.5,162.5C 585.733,159.458 586.733,156.792 588.5,154.5 Z"/></g>
<g><path style="opacity:0.329" fill="#d2d2d2" d="M 282.5,159.5 C 284.262,160.262 285.262,161.596 285.5,163.5C 283.738,162.738 282.738,161.404 282.5,159.5 Z"/></g>
<g><path style="opacity:0.024" fill="#d8d8d8" d="M 295.5,157.5 C 297.796,158.733 299.13,160.733 299.5,163.5C 297.684,161.882 296.351,159.882 295.5,157.5 Z"/></g>
<g><path style="opacity:0.039" fill="#d2d2d2" d="M 920.5,160.5 C 920.443,161.609 920.11,162.609 919.5,163.5C 918.285,162.221 918.618,161.221 920.5,160.5 Z"/></g>
<g><path style="opacity:0.435" fill="#dddddd" d="M 951.5,156.5 C 954.66,160.148 957.327,164.148 959.5,168.5C 955.844,165.197 953.178,161.197 951.5,156.5 Z"/></g>
<g><path style="opacity:0.035" fill="#cfcfcf" d="M 299.5,163.5 C 300.906,163.973 301.573,164.973 301.5,166.5C 300.094,166.027 299.427,165.027 299.5,163.5 Z"/></g>
<g><path style="opacity:0.11" fill="#d0d0d0" d="M 482.5,165.5 C 483.931,166.78 484.598,168.447 484.5,170.5C 483.069,169.22 482.402,167.553 482.5,165.5 Z"/></g>
<g><path style="opacity:0.055" fill="#d2d2d2" d="M 285.5,163.5 C 287.95,165.629 289.617,168.296 290.5,171.5C 288.05,169.371 286.383,166.704 285.5,163.5 Z"/></g>
<g><path style="opacity:0.067" fill="#cdcdcd" d="M 303.5,169.5 C 305.25,170.659 306.25,172.326 306.5,174.5C 304.75,173.341 303.75,171.674 303.5,169.5 Z"/></g>
<g><path style="opacity:0.133" fill="#d1d1d1" d="M 915.5,168.5 C 915.34,170.153 914.674,171.486 913.5,172.5C 913.229,170.62 913.896,169.287 915.5,168.5 Z"/></g>
<g><path style="opacity:0.171" fill="#cccccc" d="M 597.5,168.5 C 597.5,169.833 597.5,171.167 597.5,172.5C 610.5,172.5 623.5,172.5 636.5,172.5C 636.5,171.167 636.5,169.833 636.5,168.5C 637.451,169.919 637.784,171.585 637.5,173.5C 623.833,173.5 610.167,173.5 596.5,173.5C 596.216,171.585 596.549,169.919 597.5,168.5 Z"/></g>
<g><path style="opacity:0.11" fill="#cdcdcd" d="M 89.5,170.5 C 90.9313,171.78 91.5979,173.447 91.5,175.5C 90.0687,174.22 89.4021,172.553 89.5,170.5 Z"/></g>
<g><path style="opacity:0.612" fill="#dfdfdf" d="M 716.5,169.5 C 716.829,172.228 716.163,174.562 714.5,176.5C 714.721,173.933 715.388,171.599 716.5,169.5 Z"/></g>
<g><path style="opacity:0.059" fill="#d1d1d1" d="M 486.5,174.5 C 488.293,176.426 489.293,178.759 489.5,181.5C 487.707,179.574 486.707,177.241 486.5,174.5 Z"/></g>
<g><path style="opacity:0.718" fill="#dcdcdc" d="M 913.5,172.5 C 912.525,174.795 911.192,176.795 909.5,178.5C 909.354,175.446 910.687,173.446 913.5,172.5 Z"/></g>
<g><path style="opacity:0.051" fill="#c8c8c8" d="M 178.5,178.5 C 172.933,177.196 167.266,177.196 161.5,178.5C 164.087,177.184 167.087,176.517 170.5,176.5C 173.5,176.833 176.5,177.167 179.5,177.5C 179.376,178.107 179.043,178.44 178.5,178.5 Z"/></g>
<g><path style="opacity:0.165" fill="#d0d0d0" d="M 292.5,174.5 C 293.906,174.973 294.573,175.973 294.5,177.5C 293.094,177.027 292.427,176.027 292.5,174.5 Z"/></g>
<g><path style="opacity:0.114" fill="#cbcbcb" d="M 306.5,174.5 C 307.906,174.973 308.573,175.973 308.5,177.5C 307.094,177.027 306.427,176.027 306.5,174.5 Z"/></g>
<g><path style="opacity:0.533" fill="#d8d8d8" d="M 91.5,175.5 C 94.4086,178.981 97.0753,182.648 99.5,186.5C 95.6129,183.728 92.9462,180.061 91.5,175.5 Z"/></g>
<g><path style="opacity:0.071" fill="#d1d1d1" d="M 909.5,178.5 C 907.89,182.1 905.89,185.434 903.5,188.5C 904.272,184.402 906.272,181.069 909.5,178.5 Z"/></g>
<g><path style="opacity:0.441" fill="#e0e0e0" d="M 641.5,184.5 C 625.167,184.5 608.833,184.5 592.5,184.5C 596.835,183.689 601.335,183.022 606,182.5C 613.144,183.405 620.311,183.405 627.5,182.5C 632.424,182.354 637.091,183.021 641.5,184.5 Z"/></g>
<g><path style="opacity:0.11" fill="#c7c7c7" d="M 813.5,103.5 C 814.498,132.329 814.831,161.329 814.5,190.5C 807.167,190.5 799.833,190.5 792.5,190.5C 792.169,161.662 792.502,132.995 793.5,104.5C 793.5,132.833 793.5,161.167 793.5,189.5C 800.167,189.5 806.833,189.5 813.5,189.5C 813.5,160.833 813.5,132.167 813.5,103.5 Z"/></g>
<g><path style="opacity:0.337" fill="#cccccc" d="M 968.5,182.5 C 969.906,182.973 970.573,183.973 970.5,185.5C 969.094,185.027 968.427,184.027 968.5,182.5 Z"/></g>
<g><path style="opacity:0.545" fill="#dcdcdc" d="M 178.5,178.5 C 178.206,181.754 176.873,184.421 174.5,186.5C 175.326,183.515 176.659,180.849 178.5,178.5 Z"/></g>
<g><path style="opacity:0.125" fill="#d7d7d7" d="M 579.5,179.5 C 579.267,182.542 578.267,185.208 576.5,187.5C 576.733,184.458 577.733,181.792 579.5,179.5 Z"/></g>
<g><path style="opacity:0.196" fill="#d2d2d2" d="M 489.5,181.5 C 491.341,183.849 492.674,186.515 493.5,189.5C 491.127,187.421 489.794,184.754 489.5,181.5 Z"/></g>
<g><path style="opacity:0.373" fill="#dddddd" d="M 99.5,186.5 C 101.749,187.08 103.415,188.413 104.5,190.5C 102.251,189.92 100.585,188.587 99.5,186.5 Z"/></g>
<g><path style="opacity:0.035" fill="#cccccc" d="M 497.5,182.5 C 497.293,185.241 496.293,187.574 494.5,189.5C 494.707,186.759 495.707,184.426 497.5,182.5 Z"/></g>
<g><path style="opacity:0.088" fill="#cacaca" d="M 903.5,188.5 C 911.401,189.813 919.401,189.813 927.5,188.5C 923.555,189.825 919.222,190.492 914.5,190.5C 910.167,190.167 905.833,189.833 901.5,189.5C 901.957,188.702 902.624,188.369 903.5,188.5 Z"/></g>
<g><path style="opacity:0.093" fill="#c9c9c9" d="M 995.5,186.5 C 997.026,187.105 998.026,188.271 998.5,190C 989.833,190.667 981.167,190.667 972.5,190C 971.748,189.329 971.414,188.496 971.5,187.5C 972.289,187.783 972.956,188.283 973.5,189C 981.188,189.831 988.855,189.665 996.5,188.5C 996.137,187.817 995.804,187.15 995.5,186.5 Z"/></g>
<g><path style="opacity:0.112" fill="#d8d8d8" d="M 712.5,185.5 C 712.706,188.495 712.04,191.162 710.5,193.5C 710.565,190.572 711.232,187.905 712.5,185.5 Z"/></g>
<g><path style="opacity:0.604" fill="#dadada" d="M 174.5,186.5 C 171.833,192.5 167.5,196.833 161.5,199.5C 166.167,195.5 170.5,191.167 174.5,186.5 Z"/></g>
<g><path style="opacity:0.057" fill="#d0d0d0" d="M 506.5,190.5 C 506.771,192.38 506.104,193.713 504.5,194.5C 504.66,192.847 505.326,191.514 506.5,190.5 Z"/></g>
<g><path style="opacity:0.118" fill="#dadada" d="M 576.5,187.5 C 576.267,190.542 575.267,193.208 573.5,195.5C 573.733,192.458 574.733,189.792 576.5,187.5 Z"/></g>
<g><path style="opacity:0.604" fill="#dddddd" d="M 109.5,193.5 C 121.035,197.089 132.702,197.422 144.5,194.5C 143.158,195.793 141.491,196.626 139.5,197C 128.938,199.579 118.938,198.413 109.5,193.5 Z"/></g>
<g><path style="opacity:0.44" fill="#dcdcdc" d="M 369.5,196.5 C 384.676,196.171 399.676,196.504 414.5,197.5C 413.209,197.263 412.209,197.596 411.5,198.5C 398.833,198.5 386.167,198.5 373.5,198.5C 372.167,197.833 370.833,197.167 369.5,196.5 Z"/></g>
<g><path style="opacity:0.596" fill="#d2d2d2" d="M 645.5,193.5 C 647.02,195.89 648.02,198.557 648.5,201.5C 646.415,199.316 645.415,196.649 645.5,193.5 Z"/></g>
<g><path style="opacity:0.136" fill="#c9c9c9" d="M 450.5,127.5 C 451.498,154.328 451.831,181.328 451.5,208.5C 450.508,208.672 449.842,208.338 449.5,207.5C 450.498,181.005 450.831,154.339 450.5,127.5 Z"/></g>
<g><path style="opacity:0.11" fill="#c9c9c9" d="M 483.5,196.5 C 484.674,197.514 485.34,198.847 485.5,200.5C 483.896,199.713 483.229,198.38 483.5,196.5 Z"/></g>
<g><path style="opacity:0.298" fill="#d1d1d1" d="M 161.5,199.5 C 160.514,201.408 158.848,202.408 156.5,202.5C 157.659,200.75 159.326,199.75 161.5,199.5 Z"/></g>
<g><path style="opacity:0.235" fill="#d4d4d4" d="M 106.5,205.5 C 109.067,205.721 111.401,206.388 113.5,207.5C 110.772,207.829 108.438,207.163 106.5,205.5 Z"/></g>
<g><path style="opacity:0.049" fill="#cecece" d="M 150.5,205.5 C 148.485,206.924 146.152,207.59 143.5,207.5C 145.515,206.076 147.848,205.41 150.5,205.5 Z"/></g>
<g><path style="opacity:0.035" fill="#cbcbcb" d="M 113.5,207.5 C 123.496,208.802 133.496,208.802 143.5,207.5C 142.737,208.268 141.737,208.768 140.5,209C 132.5,209.667 124.5,209.667 116.5,209C 115.263,208.768 114.263,208.268 113.5,207.5 Z"/></g>
<g><path style="opacity:0.437" fill="#e3e3e3" d="M 311.5,203.5 C 312.836,205.307 314.503,206.807 316.5,208C 319.888,208.659 323.221,208.492 326.5,207.5C 327.209,208.404 328.209,208.737 329.5,208.5C 324.684,209.65 319.684,209.816 314.5,209C 312.84,207.512 311.84,205.679 311.5,203.5 Z"/></g>
<g><path style="opacity:0.303" fill="#e1e1e1" d="M 499.5,206.5 C 499.5,207.5 499.5,208.5 499.5,209.5C 495.351,210.08 491.684,209.414 488.5,207.5C 492.427,209.126 496.094,208.793 499.5,206.5 Z"/></g>
<g><path style="opacity:0.389" fill="#dddddd" d="M 587.5,196.5 C 586.795,200.616 585.461,204.616 583.5,208.5C 578.544,209.494 573.544,209.827 568.5,209.5C 568.415,206.351 569.415,203.684 571.5,201.5C 570.667,203.752 570.667,205.919 571.5,208C 574.833,208.667 578.167,208.667 581.5,208C 583.795,204.249 585.795,200.415 587.5,196.5 Z"/></g>
<g><path style="opacity:0.38" fill="#dcdcdc" d="M 648.5,201.5 C 649.418,203.82 650.752,205.987 652.5,208C 654.167,208.167 655.833,208.333 657.5,208.5C 663.285,209.163 664.951,206.829 662.5,201.5C 663.942,203.54 664.942,205.873 665.5,208.5C 660.5,209.833 655.5,209.833 650.5,208.5C 649.054,206.382 648.387,204.049 648.5,201.5 Z"/></g>
<g><path style="opacity:0.225" fill="#d6d6d6" d="M 708.5,201.5 C 708.425,204.206 708.092,206.873 707.5,209.5C 810.833,209.5 914.167,209.5 1017.5,209.5C 914.001,210.499 810.335,210.833 706.5,210.5C 706.42,207.219 707.087,204.219 708.5,201.5 Z"/></g>
</svg>
